<mxfile host="app.diagrams.net" modified="2023-12-10T17:41:44.184Z" agent="Mozilla/5.0 (Windows NT 10.0; Win64; x64) AppleWebKit/537.36 (KHTML, like Gecko) Chrome/120.0.0.0 Safari/537.36" etag="2lPKdwTqZJ09N2Ct5yMM" version="22.1.7" type="device">
  <diagram name="Page-1" id="v5CLQ3cF1Zdm1z_yWYt3">
    <mxGraphModel dx="1162" dy="735" grid="0" gridSize="10" guides="1" tooltips="1" connect="1" arrows="1" fold="1" page="0" pageScale="1" pageWidth="850" pageHeight="1100" math="0" shadow="0">
      <root>
        <mxCell id="0" />
        <mxCell id="1" parent="0" />
        <mxCell id="YQ9TT8gWECukMKOGuk1X-2" style="edgeStyle=none;curved=1;rounded=0;orthogonalLoop=1;jettySize=auto;html=1;fontSize=12;startSize=8;endSize=8;" parent="1" source="YQ9TT8gWECukMKOGuk1X-1" target="YQ9TT8gWECukMKOGuk1X-3" edge="1">
          <mxGeometry relative="1" as="geometry">
            <mxPoint x="106" y="288" as="targetPoint" />
          </mxGeometry>
        </mxCell>
        <mxCell id="YQ9TT8gWECukMKOGuk1X-1" value="merge(left[], right[], array[])" style="ellipse;whiteSpace=wrap;html=1;fontSize=16;" parent="1" vertex="1">
          <mxGeometry x="-48" y="160" width="308" height="80" as="geometry" />
        </mxCell>
        <mxCell id="YQ9TT8gWECukMKOGuk1X-5" style="edgeStyle=none;curved=1;rounded=0;orthogonalLoop=1;jettySize=auto;html=1;entryX=0.5;entryY=0;entryDx=0;entryDy=0;fontSize=12;startSize=8;endSize=8;" parent="1" source="YQ9TT8gWECukMKOGuk1X-3" target="YQ9TT8gWECukMKOGuk1X-4" edge="1">
          <mxGeometry relative="1" as="geometry" />
        </mxCell>
        <mxCell id="YQ9TT8gWECukMKOGuk1X-3" value="&lt;div&gt;leftI = 0&lt;/div&gt;&lt;div&gt;rightI = 0&lt;/div&gt;&lt;div&gt;arrI = 0&lt;br&gt;&lt;/div&gt;" style="rounded=0;whiteSpace=wrap;html=1;fontSize=16;" parent="1" vertex="1">
          <mxGeometry x="-17" y="279" width="246" height="67" as="geometry" />
        </mxCell>
        <mxCell id="YQ9TT8gWECukMKOGuk1X-7" style="edgeStyle=none;curved=1;rounded=0;orthogonalLoop=1;jettySize=auto;html=1;fontSize=12;startSize=8;endSize=8;" parent="1" source="YQ9TT8gWECukMKOGuk1X-4" target="YQ9TT8gWECukMKOGuk1X-8" edge="1">
          <mxGeometry relative="1" as="geometry">
            <mxPoint x="106" y="517" as="targetPoint" />
          </mxGeometry>
        </mxCell>
        <mxCell id="YQ9TT8gWECukMKOGuk1X-4" value="Цикл A&lt;br&gt;Пока leftI &amp;lt; left.length &amp;amp;&amp;amp; rightI &amp;lt; right.length" style="shape=loopLimit;whiteSpace=wrap;html=1;fontSize=16;" parent="1" vertex="1">
          <mxGeometry x="-10.5" y="381" width="233" height="80" as="geometry" />
        </mxCell>
        <mxCell id="YQ9TT8gWECukMKOGuk1X-8" value="left[leftI] &amp;lt; right[rightI]" style="rhombus;whiteSpace=wrap;html=1;fontSize=16;" parent="1" vertex="1">
          <mxGeometry x="7" y="503" width="206" height="99" as="geometry" />
        </mxCell>
        <mxCell id="YQ9TT8gWECukMKOGuk1X-13" value="array[arrI++] = left[leftI++]" style="rounded=0;whiteSpace=wrap;html=1;fontSize=16;" parent="1" vertex="1">
          <mxGeometry x="-136" y="620" width="196" height="60" as="geometry" />
        </mxCell>
        <mxCell id="YQ9TT8gWECukMKOGuk1X-20" value="array[arrI++] = right[rightI++]" style="rounded=0;whiteSpace=wrap;html=1;fontSize=16;" parent="1" vertex="1">
          <mxGeometry x="177" y="620" width="216" height="60" as="geometry" />
        </mxCell>
        <mxCell id="YQ9TT8gWECukMKOGuk1X-23" value="Да" style="text;html=1;strokeColor=none;fillColor=none;align=center;verticalAlign=middle;whiteSpace=wrap;rounded=0;fontSize=16;" parent="1" vertex="1">
          <mxGeometry x="-37" y="515" width="60" height="30" as="geometry" />
        </mxCell>
        <mxCell id="YQ9TT8gWECukMKOGuk1X-24" value="Нет" style="text;html=1;strokeColor=none;fillColor=none;align=center;verticalAlign=middle;whiteSpace=wrap;rounded=0;fontSize=16;" parent="1" vertex="1">
          <mxGeometry x="217" y="515" width="60" height="30" as="geometry" />
        </mxCell>
        <mxCell id="YQ9TT8gWECukMKOGuk1X-37" style="edgeStyle=none;curved=1;rounded=0;orthogonalLoop=1;jettySize=auto;html=1;entryX=0.5;entryY=0;entryDx=0;entryDy=0;fontSize=12;startSize=8;endSize=8;" parent="1" source="YQ9TT8gWECukMKOGuk1X-25" target="YQ9TT8gWECukMKOGuk1X-36" edge="1">
          <mxGeometry relative="1" as="geometry" />
        </mxCell>
        <mxCell id="YQ9TT8gWECukMKOGuk1X-25" value="" style="shape=loopLimit;whiteSpace=wrap;html=1;fontSize=16;rotation=-180;" parent="1" vertex="1">
          <mxGeometry x="9" y="766" width="231" height="56" as="geometry" />
        </mxCell>
        <mxCell id="YQ9TT8gWECukMKOGuk1X-26" style="edgeStyle=none;curved=1;rounded=0;orthogonalLoop=1;jettySize=auto;html=1;exitX=0.75;exitY=1;exitDx=0;exitDy=0;fontSize=12;startSize=8;endSize=8;" parent="1" source="YQ9TT8gWECukMKOGuk1X-13" target="YQ9TT8gWECukMKOGuk1X-13" edge="1">
          <mxGeometry relative="1" as="geometry" />
        </mxCell>
        <mxCell id="YQ9TT8gWECukMKOGuk1X-30" value="" style="endArrow=none;html=1;rounded=0;fontSize=12;startSize=8;endSize=8;entryX=0.5;entryY=1;entryDx=0;entryDy=0;exitX=0.5;exitY=1;exitDx=0;exitDy=0;" parent="1" source="YQ9TT8gWECukMKOGuk1X-13" target="YQ9TT8gWECukMKOGuk1X-20" edge="1">
          <mxGeometry width="50" height="50" relative="1" as="geometry">
            <mxPoint x="204" y="820" as="sourcePoint" />
            <mxPoint x="254" y="770" as="targetPoint" />
            <Array as="points">
              <mxPoint x="-38" y="718" />
              <mxPoint x="285" y="722" />
            </Array>
          </mxGeometry>
        </mxCell>
        <mxCell id="YQ9TT8gWECukMKOGuk1X-31" value="" style="endArrow=classic;html=1;rounded=0;fontSize=12;startSize=8;endSize=8;exitX=0;exitY=0.5;exitDx=0;exitDy=0;entryX=0.5;entryY=0;entryDx=0;entryDy=0;" parent="1" source="YQ9TT8gWECukMKOGuk1X-8" target="YQ9TT8gWECukMKOGuk1X-13" edge="1">
          <mxGeometry width="50" height="50" relative="1" as="geometry">
            <mxPoint x="-288" y="620" as="sourcePoint" />
            <mxPoint x="-238" y="570" as="targetPoint" />
            <Array as="points">
              <mxPoint x="-38" y="553" />
            </Array>
          </mxGeometry>
        </mxCell>
        <mxCell id="YQ9TT8gWECukMKOGuk1X-32" value="" style="endArrow=classic;html=1;rounded=0;fontSize=12;startSize=8;endSize=8;exitX=1;exitY=0.5;exitDx=0;exitDy=0;entryX=0.5;entryY=0;entryDx=0;entryDy=0;" parent="1" source="YQ9TT8gWECukMKOGuk1X-8" target="YQ9TT8gWECukMKOGuk1X-20" edge="1">
          <mxGeometry width="50" height="50" relative="1" as="geometry">
            <mxPoint x="114" y="604" as="sourcePoint" />
            <mxPoint x="164" y="554" as="targetPoint" />
            <Array as="points">
              <mxPoint x="285" y="553" />
            </Array>
          </mxGeometry>
        </mxCell>
        <mxCell id="YQ9TT8gWECukMKOGuk1X-33" value="Цикл А" style="text;html=1;strokeColor=none;fillColor=none;align=center;verticalAlign=middle;whiteSpace=wrap;rounded=0;fontSize=16;" parent="1" vertex="1">
          <mxGeometry x="99" y="779" width="60" height="30" as="geometry" />
        </mxCell>
        <mxCell id="YQ9TT8gWECukMKOGuk1X-34" value="" style="endArrow=classic;html=1;rounded=0;fontSize=12;startSize=8;endSize=8;curved=1;entryX=0.5;entryY=1;entryDx=0;entryDy=0;" parent="1" target="YQ9TT8gWECukMKOGuk1X-25" edge="1">
          <mxGeometry width="50" height="50" relative="1" as="geometry">
            <mxPoint x="126" y="720" as="sourcePoint" />
            <mxPoint x="164" y="602" as="targetPoint" />
          </mxGeometry>
        </mxCell>
        <mxCell id="YQ9TT8gWECukMKOGuk1X-39" style="edgeStyle=none;curved=1;rounded=0;orthogonalLoop=1;jettySize=auto;html=1;entryX=0.5;entryY=0;entryDx=0;entryDy=0;fontSize=12;startSize=8;endSize=8;" parent="1" source="YQ9TT8gWECukMKOGuk1X-36" target="YQ9TT8gWECukMKOGuk1X-38" edge="1">
          <mxGeometry relative="1" as="geometry" />
        </mxCell>
        <mxCell id="YQ9TT8gWECukMKOGuk1X-36" value="Цикл Б&lt;br&gt;Пока leftI&amp;lt; left.length" style="shape=loopLimit;whiteSpace=wrap;html=1;fontSize=16;" parent="1" vertex="1">
          <mxGeometry x="5.5" y="856" width="238" height="80" as="geometry" />
        </mxCell>
        <mxCell id="YQ9TT8gWECukMKOGuk1X-41" style="edgeStyle=none;curved=1;rounded=0;orthogonalLoop=1;jettySize=auto;html=1;entryX=0.5;entryY=1;entryDx=0;entryDy=0;fontSize=12;startSize=8;endSize=8;" parent="1" source="YQ9TT8gWECukMKOGuk1X-38" target="YQ9TT8gWECukMKOGuk1X-40" edge="1">
          <mxGeometry relative="1" as="geometry" />
        </mxCell>
        <mxCell id="YQ9TT8gWECukMKOGuk1X-38" value="array[arrI++] = left[leftI++]" style="rounded=0;whiteSpace=wrap;html=1;fontSize=16;" parent="1" vertex="1">
          <mxGeometry x="7" y="971" width="233" height="60" as="geometry" />
        </mxCell>
        <mxCell id="YQ9TT8gWECukMKOGuk1X-49" style="edgeStyle=none;curved=1;rounded=0;orthogonalLoop=1;jettySize=auto;html=1;entryX=0.5;entryY=0;entryDx=0;entryDy=0;fontSize=12;startSize=8;endSize=8;" parent="1" source="YQ9TT8gWECukMKOGuk1X-40" target="YQ9TT8gWECukMKOGuk1X-44" edge="1">
          <mxGeometry relative="1" as="geometry" />
        </mxCell>
        <mxCell id="YQ9TT8gWECukMKOGuk1X-40" value="" style="shape=loopLimit;whiteSpace=wrap;html=1;fontSize=16;rotation=-180;" parent="1" vertex="1">
          <mxGeometry x="9" y="1070" width="231" height="56" as="geometry" />
        </mxCell>
        <mxCell id="YQ9TT8gWECukMKOGuk1X-42" value="Цикл Б" style="text;html=1;strokeColor=none;fillColor=none;align=center;verticalAlign=middle;whiteSpace=wrap;rounded=0;fontSize=16;" parent="1" vertex="1">
          <mxGeometry x="97" y="1081" width="60" height="30" as="geometry" />
        </mxCell>
        <mxCell id="YQ9TT8gWECukMKOGuk1X-43" style="edgeStyle=none;curved=1;rounded=0;orthogonalLoop=1;jettySize=auto;html=1;entryX=0.5;entryY=0;entryDx=0;entryDy=0;fontSize=12;startSize=8;endSize=8;" parent="1" source="YQ9TT8gWECukMKOGuk1X-44" target="YQ9TT8gWECukMKOGuk1X-46" edge="1">
          <mxGeometry relative="1" as="geometry" />
        </mxCell>
        <mxCell id="YQ9TT8gWECukMKOGuk1X-44" value="Цикл В&lt;br&gt;Пока rightI&amp;lt; right.length" style="shape=loopLimit;whiteSpace=wrap;html=1;fontSize=16;" parent="1" vertex="1">
          <mxGeometry x="8" y="1150" width="238" height="80" as="geometry" />
        </mxCell>
        <mxCell id="YQ9TT8gWECukMKOGuk1X-45" style="edgeStyle=none;curved=1;rounded=0;orthogonalLoop=1;jettySize=auto;html=1;entryX=0.5;entryY=1;entryDx=0;entryDy=0;fontSize=12;startSize=8;endSize=8;" parent="1" source="YQ9TT8gWECukMKOGuk1X-46" target="YQ9TT8gWECukMKOGuk1X-47" edge="1">
          <mxGeometry relative="1" as="geometry" />
        </mxCell>
        <mxCell id="YQ9TT8gWECukMKOGuk1X-46" value="array[arrI++] = right[rightI++]" style="rounded=0;whiteSpace=wrap;html=1;fontSize=16;" parent="1" vertex="1">
          <mxGeometry x="9.5" y="1265" width="233" height="60" as="geometry" />
        </mxCell>
        <mxCell id="YQ9TT8gWECukMKOGuk1X-51" style="edgeStyle=none;curved=1;rounded=0;orthogonalLoop=1;jettySize=auto;html=1;fontSize=12;startSize=8;endSize=8;" parent="1" source="YQ9TT8gWECukMKOGuk1X-47" target="YQ9TT8gWECukMKOGuk1X-50" edge="1">
          <mxGeometry relative="1" as="geometry" />
        </mxCell>
        <mxCell id="YQ9TT8gWECukMKOGuk1X-47" value="" style="shape=loopLimit;whiteSpace=wrap;html=1;fontSize=16;rotation=-180;" parent="1" vertex="1">
          <mxGeometry x="11.5" y="1364" width="231" height="56" as="geometry" />
        </mxCell>
        <mxCell id="YQ9TT8gWECukMKOGuk1X-48" value="Цикл В" style="text;html=1;strokeColor=none;fillColor=none;align=center;verticalAlign=middle;whiteSpace=wrap;rounded=0;fontSize=16;" parent="1" vertex="1">
          <mxGeometry x="99.5" y="1375" width="60" height="30" as="geometry" />
        </mxCell>
        <mxCell id="YQ9TT8gWECukMKOGuk1X-50" value="Конец" style="ellipse;whiteSpace=wrap;html=1;fontSize=16;" parent="1" vertex="1">
          <mxGeometry x="28.75" y="1448" width="194.5" height="62" as="geometry" />
        </mxCell>
        <mxCell id="YQ9TT8gWECukMKOGuk1X-54" style="edgeStyle=none;curved=1;rounded=0;orthogonalLoop=1;jettySize=auto;html=1;entryX=0.5;entryY=0;entryDx=0;entryDy=0;fontSize=12;startSize=8;endSize=8;" parent="1" source="YQ9TT8gWECukMKOGuk1X-52" target="YQ9TT8gWECukMKOGuk1X-53" edge="1">
          <mxGeometry relative="1" as="geometry" />
        </mxCell>
        <mxCell id="YQ9TT8gWECukMKOGuk1X-52" value="copy(array[],&amp;nbsp; from,&amp;nbsp; to)" style="ellipse;whiteSpace=wrap;html=1;fontSize=16;" parent="1" vertex="1">
          <mxGeometry x="818" y="160" width="308" height="80" as="geometry" />
        </mxCell>
        <mxCell id="YQ9TT8gWECukMKOGuk1X-56" style="edgeStyle=none;curved=1;rounded=0;orthogonalLoop=1;jettySize=auto;html=1;entryX=0.5;entryY=0;entryDx=0;entryDy=0;fontSize=12;startSize=8;endSize=8;" parent="1" source="YQ9TT8gWECukMKOGuk1X-53" target="YQ9TT8gWECukMKOGuk1X-55" edge="1">
          <mxGeometry relative="1" as="geometry" />
        </mxCell>
        <mxCell id="YQ9TT8gWECukMKOGuk1X-53" value="int[] copy = new int[to - from]" style="rounded=0;whiteSpace=wrap;html=1;fontSize=16;" parent="1" vertex="1">
          <mxGeometry x="859" y="291" width="226" height="60" as="geometry" />
        </mxCell>
        <mxCell id="YQ9TT8gWECukMKOGuk1X-58" style="edgeStyle=none;curved=1;rounded=0;orthogonalLoop=1;jettySize=auto;html=1;entryX=0.5;entryY=0;entryDx=0;entryDy=0;fontSize=12;startSize=8;endSize=8;" parent="1" source="YQ9TT8gWECukMKOGuk1X-55" target="YQ9TT8gWECukMKOGuk1X-57" edge="1">
          <mxGeometry relative="1" as="geometry" />
        </mxCell>
        <mxCell id="YQ9TT8gWECukMKOGuk1X-55" value="Цикл A&lt;br&gt;i = from; i &amp;lt; to; i ++" style="shape=loopLimit;whiteSpace=wrap;html=1;fontSize=16;" parent="1" vertex="1">
          <mxGeometry x="863" y="386" width="218" height="80" as="geometry" />
        </mxCell>
        <mxCell id="YQ9TT8gWECukMKOGuk1X-60" style="edgeStyle=none;curved=1;rounded=0;orthogonalLoop=1;jettySize=auto;html=1;entryX=0.5;entryY=1;entryDx=0;entryDy=0;fontSize=12;startSize=8;endSize=8;" parent="1" source="YQ9TT8gWECukMKOGuk1X-57" target="YQ9TT8gWECukMKOGuk1X-59" edge="1">
          <mxGeometry relative="1" as="geometry" />
        </mxCell>
        <mxCell id="YQ9TT8gWECukMKOGuk1X-57" value="copy[i - from] = array[i]" style="rounded=0;whiteSpace=wrap;html=1;fontSize=16;" parent="1" vertex="1">
          <mxGeometry x="859" y="498" width="226" height="60" as="geometry" />
        </mxCell>
        <mxCell id="YQ9TT8gWECukMKOGuk1X-63" style="edgeStyle=none;curved=1;rounded=0;orthogonalLoop=1;jettySize=auto;html=1;entryX=0.5;entryY=0;entryDx=0;entryDy=0;fontSize=12;startSize=8;endSize=8;" parent="1" source="YQ9TT8gWECukMKOGuk1X-59" target="YQ9TT8gWECukMKOGuk1X-62" edge="1">
          <mxGeometry relative="1" as="geometry" />
        </mxCell>
        <mxCell id="YQ9TT8gWECukMKOGuk1X-59" value="" style="shape=loopLimit;whiteSpace=wrap;html=1;fontSize=16;rotation=-180;" parent="1" vertex="1">
          <mxGeometry x="863" y="615" width="218" height="60" as="geometry" />
        </mxCell>
        <mxCell id="YQ9TT8gWECukMKOGuk1X-61" value="Цикл А" style="text;html=1;strokeColor=none;fillColor=none;align=center;verticalAlign=middle;whiteSpace=wrap;rounded=0;fontSize=16;" parent="1" vertex="1">
          <mxGeometry x="942" y="632" width="60" height="30" as="geometry" />
        </mxCell>
        <mxCell id="YQ9TT8gWECukMKOGuk1X-65" style="edgeStyle=none;curved=1;rounded=0;orthogonalLoop=1;jettySize=auto;html=1;fontSize=12;startSize=8;endSize=8;" parent="1" source="YQ9TT8gWECukMKOGuk1X-62" target="YQ9TT8gWECukMKOGuk1X-64" edge="1">
          <mxGeometry relative="1" as="geometry" />
        </mxCell>
        <mxCell id="YQ9TT8gWECukMKOGuk1X-62" value="COPY = copy" style="rounded=0;whiteSpace=wrap;html=1;fontSize=16;" parent="1" vertex="1">
          <mxGeometry x="859" y="709" width="226" height="60" as="geometry" />
        </mxCell>
        <mxCell id="YQ9TT8gWECukMKOGuk1X-64" value="Конец" style="ellipse;whiteSpace=wrap;html=1;fontSize=16;fontStyle=1" parent="1" vertex="1">
          <mxGeometry x="862" y="812" width="223" height="80" as="geometry" />
        </mxCell>
        <mxCell id="YQ9TT8gWECukMKOGuk1X-68" style="edgeStyle=none;curved=1;rounded=0;orthogonalLoop=1;jettySize=auto;html=1;fontSize=12;startSize=8;endSize=8;" parent="1" source="YQ9TT8gWECukMKOGuk1X-66" target="YQ9TT8gWECukMKOGuk1X-67" edge="1">
          <mxGeometry relative="1" as="geometry" />
        </mxCell>
        <mxCell id="YQ9TT8gWECukMKOGuk1X-66" value="mergeSort(array[])" style="ellipse;whiteSpace=wrap;html=1;fontSize=16;" parent="1" vertex="1">
          <mxGeometry x="1237" y="152" width="308" height="80" as="geometry" />
        </mxCell>
        <mxCell id="YQ9TT8gWECukMKOGuk1X-72" style="edgeStyle=none;curved=1;rounded=0;orthogonalLoop=1;jettySize=auto;html=1;entryX=0.5;entryY=0;entryDx=0;entryDy=0;fontSize=12;startSize=8;endSize=8;" parent="1" source="YQ9TT8gWECukMKOGuk1X-67" target="YQ9TT8gWECukMKOGuk1X-71" edge="1">
          <mxGeometry relative="1" as="geometry" />
        </mxCell>
        <mxCell id="YQ9TT8gWECukMKOGuk1X-86" style="edgeStyle=none;rounded=0;orthogonalLoop=1;jettySize=auto;html=1;fontSize=12;startSize=8;endSize=8;" parent="1" source="YQ9TT8gWECukMKOGuk1X-67" edge="1">
          <mxGeometry relative="1" as="geometry">
            <mxPoint x="1388" y="894" as="targetPoint" />
            <Array as="points">
              <mxPoint x="1601" y="315" />
              <mxPoint x="1609" y="896" />
            </Array>
          </mxGeometry>
        </mxCell>
        <mxCell id="YQ9TT8gWECukMKOGuk1X-67" value="array.length &amp;gt; 1" style="rhombus;whiteSpace=wrap;html=1;fontSize=16;" parent="1" vertex="1">
          <mxGeometry x="1252.25" y="275" width="271.5" height="80" as="geometry" />
        </mxCell>
        <mxCell id="YQ9TT8gWECukMKOGuk1X-74" style="edgeStyle=none;curved=1;rounded=0;orthogonalLoop=1;jettySize=auto;html=1;entryX=0.5;entryY=0;entryDx=0;entryDy=0;fontSize=12;startSize=8;endSize=8;" parent="1" source="YQ9TT8gWECukMKOGuk1X-71" target="YQ9TT8gWECukMKOGuk1X-73" edge="1">
          <mxGeometry relative="1" as="geometry" />
        </mxCell>
        <mxCell id="YQ9TT8gWECukMKOGuk1X-71" value="&amp;nbsp;mid = array.lenth / 2" style="rounded=0;whiteSpace=wrap;html=1;fontSize=16;" parent="1" vertex="1">
          <mxGeometry x="1253" y="382" width="267" height="60" as="geometry" />
        </mxCell>
        <mxCell id="YQ9TT8gWECukMKOGuk1X-76" style="edgeStyle=none;curved=1;rounded=0;orthogonalLoop=1;jettySize=auto;html=1;fontSize=12;startSize=8;endSize=8;" parent="1" source="YQ9TT8gWECukMKOGuk1X-73" target="YQ9TT8gWECukMKOGuk1X-75" edge="1">
          <mxGeometry relative="1" as="geometry" />
        </mxCell>
        <mxCell id="YQ9TT8gWECukMKOGuk1X-73" value="left = copy(array, 0, mid)" style="shape=process;whiteSpace=wrap;html=1;backgroundOutline=1;fontSize=16;" parent="1" vertex="1">
          <mxGeometry x="1252.25" y="470" width="270.5" height="60" as="geometry" />
        </mxCell>
        <mxCell id="YQ9TT8gWECukMKOGuk1X-78" style="edgeStyle=none;curved=1;rounded=0;orthogonalLoop=1;jettySize=auto;html=1;fontSize=12;startSize=8;endSize=8;" parent="1" source="YQ9TT8gWECukMKOGuk1X-75" target="YQ9TT8gWECukMKOGuk1X-77" edge="1">
          <mxGeometry relative="1" as="geometry" />
        </mxCell>
        <mxCell id="YQ9TT8gWECukMKOGuk1X-75" value="right = copy(array, mid + 1, array.length)" style="shape=process;whiteSpace=wrap;html=1;backgroundOutline=1;fontSize=16;" parent="1" vertex="1">
          <mxGeometry x="1252.25" y="558" width="270.5" height="60" as="geometry" />
        </mxCell>
        <mxCell id="YQ9TT8gWECukMKOGuk1X-80" style="edgeStyle=none;curved=1;rounded=0;orthogonalLoop=1;jettySize=auto;html=1;fontSize=12;startSize=8;endSize=8;" parent="1" source="YQ9TT8gWECukMKOGuk1X-77" target="YQ9TT8gWECukMKOGuk1X-79" edge="1">
          <mxGeometry relative="1" as="geometry" />
        </mxCell>
        <mxCell id="YQ9TT8gWECukMKOGuk1X-77" value="mergeSort(left)" style="shape=process;whiteSpace=wrap;html=1;backgroundOutline=1;fontSize=16;" parent="1" vertex="1">
          <mxGeometry x="1255" y="646" width="267" height="60" as="geometry" />
        </mxCell>
        <mxCell id="YQ9TT8gWECukMKOGuk1X-82" style="edgeStyle=none;curved=1;rounded=0;orthogonalLoop=1;jettySize=auto;html=1;fontSize=12;startSize=8;endSize=8;" parent="1" source="YQ9TT8gWECukMKOGuk1X-79" target="YQ9TT8gWECukMKOGuk1X-81" edge="1">
          <mxGeometry relative="1" as="geometry" />
        </mxCell>
        <mxCell id="YQ9TT8gWECukMKOGuk1X-79" value="mergeSort(right)" style="shape=process;whiteSpace=wrap;html=1;backgroundOutline=1;fontSize=16;" parent="1" vertex="1">
          <mxGeometry x="1255" y="734" width="267" height="60" as="geometry" />
        </mxCell>
        <mxCell id="YQ9TT8gWECukMKOGuk1X-85" style="edgeStyle=none;curved=1;rounded=0;orthogonalLoop=1;jettySize=auto;html=1;fontSize=12;startSize=8;endSize=8;" parent="1" source="YQ9TT8gWECukMKOGuk1X-81" target="YQ9TT8gWECukMKOGuk1X-84" edge="1">
          <mxGeometry relative="1" as="geometry" />
        </mxCell>
        <mxCell id="YQ9TT8gWECukMKOGuk1X-81" value="merge(left, right, array)" style="shape=process;whiteSpace=wrap;html=1;backgroundOutline=1;fontSize=16;" parent="1" vertex="1">
          <mxGeometry x="1255" y="817" width="267" height="60" as="geometry" />
        </mxCell>
        <mxCell id="YQ9TT8gWECukMKOGuk1X-83" value="Да" style="text;html=1;strokeColor=none;fillColor=none;align=center;verticalAlign=middle;whiteSpace=wrap;rounded=0;fontSize=16;" parent="1" vertex="1">
          <mxGeometry x="1302" y="349" width="60" height="30" as="geometry" />
        </mxCell>
        <mxCell id="YQ9TT8gWECukMKOGuk1X-84" value="Конец" style="ellipse;whiteSpace=wrap;html=1;fontSize=16;" parent="1" vertex="1">
          <mxGeometry x="1309.25" y="917" width="158.5" height="80" as="geometry" />
        </mxCell>
        <mxCell id="YQ9TT8gWECukMKOGuk1X-87" value="Нет" style="text;html=1;strokeColor=none;fillColor=none;align=center;verticalAlign=middle;whiteSpace=wrap;rounded=0;fontSize=16;" parent="1" vertex="1">
          <mxGeometry x="1518" y="285" width="60" height="30" as="geometry" />
        </mxCell>
        <mxCell id="YQ9TT8gWECukMKOGuk1X-91" style="edgeStyle=none;curved=1;rounded=0;orthogonalLoop=1;jettySize=auto;html=1;fontSize=12;startSize=8;endSize=8;" parent="1" source="YQ9TT8gWECukMKOGuk1X-88" target="YQ9TT8gWECukMKOGuk1X-90" edge="1">
          <mxGeometry relative="1" as="geometry" />
        </mxCell>
        <mxCell id="YQ9TT8gWECukMKOGuk1X-88" value="printSortTime(arr[], n , count)" style="ellipse;whiteSpace=wrap;html=1;fontSize=16;" parent="1" vertex="1">
          <mxGeometry x="1780" y="145" width="266" height="63" as="geometry" />
        </mxCell>
        <mxCell id="YQ9TT8gWECukMKOGuk1X-95" style="edgeStyle=none;curved=1;rounded=0;orthogonalLoop=1;jettySize=auto;html=1;entryX=0.5;entryY=0;entryDx=0;entryDy=0;fontSize=12;startSize=8;endSize=8;" parent="1" source="YQ9TT8gWECukMKOGuk1X-90" target="YQ9TT8gWECukMKOGuk1X-92" edge="1">
          <mxGeometry relative="1" as="geometry" />
        </mxCell>
        <mxCell id="YQ9TT8gWECukMKOGuk1X-90" value="Instant start = Instant.now()" style="shape=process;whiteSpace=wrap;html=1;backgroundOutline=1;fontSize=16;" parent="1" vertex="1">
          <mxGeometry x="1777" y="240" width="271" height="60" as="geometry" />
        </mxCell>
        <mxCell id="YQ9TT8gWECukMKOGuk1X-96" style="edgeStyle=none;curved=1;rounded=0;orthogonalLoop=1;jettySize=auto;html=1;fontSize=12;startSize=8;endSize=8;" parent="1" source="YQ9TT8gWECukMKOGuk1X-92" target="YQ9TT8gWECukMKOGuk1X-93" edge="1">
          <mxGeometry relative="1" as="geometry" />
        </mxCell>
        <mxCell id="YQ9TT8gWECukMKOGuk1X-92" value="Цикл A&lt;br&gt;i = from; i &amp;lt; to; i ++" style="shape=loopLimit;whiteSpace=wrap;html=1;fontSize=16;" parent="1" vertex="1">
          <mxGeometry x="1775" y="339" width="276" height="80" as="geometry" />
        </mxCell>
        <mxCell id="YQ9TT8gWECukMKOGuk1X-97" style="edgeStyle=none;curved=1;rounded=0;orthogonalLoop=1;jettySize=auto;html=1;entryX=0.5;entryY=1;entryDx=0;entryDy=0;fontSize=12;startSize=8;endSize=8;" parent="1" source="YQ9TT8gWECukMKOGuk1X-93" target="YQ9TT8gWECukMKOGuk1X-94" edge="1">
          <mxGeometry relative="1" as="geometry" />
        </mxCell>
        <mxCell id="YQ9TT8gWECukMKOGuk1X-93" value="selectSort(copy(arr, 0, n))" style="rounded=0;whiteSpace=wrap;html=1;fontSize=16;" parent="1" vertex="1">
          <mxGeometry x="1775" y="451" width="277" height="60" as="geometry" />
        </mxCell>
        <mxCell id="YQ9TT8gWECukMKOGuk1X-100" style="edgeStyle=none;curved=1;rounded=0;orthogonalLoop=1;jettySize=auto;html=1;entryX=0.5;entryY=0;entryDx=0;entryDy=0;fontSize=12;startSize=8;endSize=8;" parent="1" source="YQ9TT8gWECukMKOGuk1X-94" target="YQ9TT8gWECukMKOGuk1X-99" edge="1">
          <mxGeometry relative="1" as="geometry" />
        </mxCell>
        <mxCell id="YQ9TT8gWECukMKOGuk1X-94" value="" style="shape=loopLimit;whiteSpace=wrap;html=1;fontSize=16;rotation=-180;" parent="1" vertex="1">
          <mxGeometry x="1774.75" y="547" width="277.5" height="60" as="geometry" />
        </mxCell>
        <mxCell id="YQ9TT8gWECukMKOGuk1X-98" value="Цикл А" style="text;html=1;strokeColor=none;fillColor=none;align=center;verticalAlign=middle;whiteSpace=wrap;rounded=0;fontSize=16;" parent="1" vertex="1">
          <mxGeometry x="1883.5" y="562" width="60" height="30" as="geometry" />
        </mxCell>
        <mxCell id="YQ9TT8gWECukMKOGuk1X-103" style="edgeStyle=none;curved=1;rounded=0;orthogonalLoop=1;jettySize=auto;html=1;entryX=0.5;entryY=0;entryDx=0;entryDy=0;fontSize=12;startSize=8;endSize=8;" parent="1" source="YQ9TT8gWECukMKOGuk1X-99" target="YQ9TT8gWECukMKOGuk1X-101" edge="1">
          <mxGeometry relative="1" as="geometry" />
        </mxCell>
        <mxCell id="YQ9TT8gWECukMKOGuk1X-99" value="&lt;div&gt;Instant end = Instant.now();&lt;/div&gt;&lt;div&gt;Duration res = Duration.between(start, end)&lt;br&gt;&lt;/div&gt;" style="shape=process;whiteSpace=wrap;html=1;backgroundOutline=1;fontSize=16;" parent="1" vertex="1">
          <mxGeometry x="1766" y="646" width="295" height="60" as="geometry" />
        </mxCell>
        <mxCell id="YQ9TT8gWECukMKOGuk1X-105" style="edgeStyle=none;curved=1;rounded=0;orthogonalLoop=1;jettySize=auto;html=1;fontSize=12;startSize=8;endSize=8;" parent="1" source="YQ9TT8gWECukMKOGuk1X-101" target="YQ9TT8gWECukMKOGuk1X-104" edge="1">
          <mxGeometry relative="1" as="geometry" />
        </mxCell>
        <mxCell id="YQ9TT8gWECukMKOGuk1X-101" value="res.toNanos() / 10e6 / count" style="shape=parallelogram;perimeter=parallelogramPerimeter;whiteSpace=wrap;html=1;fixedSize=1;fontSize=16;" parent="1" vertex="1">
          <mxGeometry x="1788" y="743" width="251" height="60" as="geometry" />
        </mxCell>
        <mxCell id="YQ9TT8gWECukMKOGuk1X-104" value="Конец" style="ellipse;whiteSpace=wrap;html=1;fontSize=16;" parent="1" vertex="1">
          <mxGeometry x="1780.5" y="848" width="266" height="63" as="geometry" />
        </mxCell>
        <mxCell id="YQ9TT8gWECukMKOGuk1X-109" value="" style="edgeStyle=none;curved=1;rounded=0;orthogonalLoop=1;jettySize=auto;html=1;fontSize=12;startSize=8;endSize=8;" parent="1" source="YQ9TT8gWECukMKOGuk1X-106" target="YQ9TT8gWECukMKOGuk1X-108" edge="1">
          <mxGeometry relative="1" as="geometry" />
        </mxCell>
        <mxCell id="YQ9TT8gWECukMKOGuk1X-106" value="createArray(size, min, max)" style="ellipse;whiteSpace=wrap;html=1;fontSize=16;" parent="1" vertex="1">
          <mxGeometry x="2131" y="145" width="266" height="63" as="geometry" />
        </mxCell>
        <mxCell id="YQ9TT8gWECukMKOGuk1X-114" style="edgeStyle=none;curved=1;rounded=0;orthogonalLoop=1;jettySize=auto;html=1;entryX=0.5;entryY=0;entryDx=0;entryDy=0;fontSize=12;startSize=8;endSize=8;" parent="1" source="YQ9TT8gWECukMKOGuk1X-108" target="YQ9TT8gWECukMKOGuk1X-110" edge="1">
          <mxGeometry relative="1" as="geometry" />
        </mxCell>
        <mxCell id="YQ9TT8gWECukMKOGuk1X-108" value="&lt;div&gt;int[] array = new int[size]&lt;/div&gt;Random rand = new Random()" style="whiteSpace=wrap;html=1;fontSize=16;" parent="1" vertex="1">
          <mxGeometry x="2146" y="240" width="236" height="90" as="geometry" />
        </mxCell>
        <mxCell id="YQ9TT8gWECukMKOGuk1X-115" style="edgeStyle=none;curved=1;rounded=0;orthogonalLoop=1;jettySize=auto;html=1;entryX=0.5;entryY=0;entryDx=0;entryDy=0;fontSize=12;startSize=8;endSize=8;" parent="1" source="YQ9TT8gWECukMKOGuk1X-110" target="YQ9TT8gWECukMKOGuk1X-111" edge="1">
          <mxGeometry relative="1" as="geometry" />
        </mxCell>
        <mxCell id="YQ9TT8gWECukMKOGuk1X-110" value="Цикл A&lt;br&gt;i = 0; i &amp;lt; size; i ++" style="shape=loopLimit;whiteSpace=wrap;html=1;fontSize=16;" parent="1" vertex="1">
          <mxGeometry x="2126" y="349" width="276" height="80" as="geometry" />
        </mxCell>
        <mxCell id="YQ9TT8gWECukMKOGuk1X-116" style="edgeStyle=none;curved=1;rounded=0;orthogonalLoop=1;jettySize=auto;html=1;entryX=0.5;entryY=1;entryDx=0;entryDy=0;fontSize=12;startSize=8;endSize=8;" parent="1" source="YQ9TT8gWECukMKOGuk1X-111" target="YQ9TT8gWECukMKOGuk1X-112" edge="1">
          <mxGeometry relative="1" as="geometry" />
        </mxCell>
        <mxCell id="YQ9TT8gWECukMKOGuk1X-111" value="array[i] = rand.nextInt(min, max + 1)" style="rounded=0;whiteSpace=wrap;html=1;fontSize=16;" parent="1" vertex="1">
          <mxGeometry x="2123.25" y="463" width="277" height="60" as="geometry" />
        </mxCell>
        <mxCell id="YQ9TT8gWECukMKOGuk1X-118" style="edgeStyle=none;curved=1;rounded=0;orthogonalLoop=1;jettySize=auto;html=1;fontSize=12;startSize=8;endSize=8;" parent="1" source="YQ9TT8gWECukMKOGuk1X-112" target="YQ9TT8gWECukMKOGuk1X-117" edge="1">
          <mxGeometry relative="1" as="geometry" />
        </mxCell>
        <mxCell id="YQ9TT8gWECukMKOGuk1X-112" value="" style="shape=loopLimit;whiteSpace=wrap;html=1;fontSize=16;rotation=-180;" parent="1" vertex="1">
          <mxGeometry x="2123" y="559" width="277.5" height="60" as="geometry" />
        </mxCell>
        <mxCell id="YQ9TT8gWECukMKOGuk1X-113" value="Цикл А" style="text;html=1;strokeColor=none;fillColor=none;align=center;verticalAlign=middle;whiteSpace=wrap;rounded=0;fontSize=16;" parent="1" vertex="1">
          <mxGeometry x="2231.25" y="577" width="60" height="30" as="geometry" />
        </mxCell>
        <mxCell id="YQ9TT8gWECukMKOGuk1X-120" style="edgeStyle=none;curved=1;rounded=0;orthogonalLoop=1;jettySize=auto;html=1;fontSize=12;startSize=8;endSize=8;" parent="1" source="YQ9TT8gWECukMKOGuk1X-117" target="YQ9TT8gWECukMKOGuk1X-119" edge="1">
          <mxGeometry relative="1" as="geometry" />
        </mxCell>
        <mxCell id="YQ9TT8gWECukMKOGuk1X-117" value="createArray = array" style="whiteSpace=wrap;html=1;fontSize=16;" parent="1" vertex="1">
          <mxGeometry x="2143.25" y="646" width="236" height="41" as="geometry" />
        </mxCell>
        <mxCell id="YQ9TT8gWECukMKOGuk1X-119" value="Конец" style="ellipse;whiteSpace=wrap;html=1;fontSize=16;" parent="1" vertex="1">
          <mxGeometry x="2162.88" y="720" width="196.75" height="49" as="geometry" />
        </mxCell>
        <mxCell id="OtcmYywF1ps1R1fDcR3n-1" value="" style="shape=table;startSize=0;container=1;collapsible=0;childLayout=tableLayout;fontSize=16;" vertex="1" parent="1">
          <mxGeometry x="1405" y="1500" width="307" height="40" as="geometry" />
        </mxCell>
        <mxCell id="OtcmYywF1ps1R1fDcR3n-2" value="" style="shape=tableRow;horizontal=0;startSize=0;swimlaneHead=0;swimlaneBody=0;strokeColor=inherit;top=0;left=0;bottom=0;right=0;collapsible=0;dropTarget=0;fillColor=none;points=[[0,0.5],[1,0.5]];portConstraint=eastwest;fontSize=16;" vertex="1" parent="OtcmYywF1ps1R1fDcR3n-1">
          <mxGeometry width="307" height="40" as="geometry" />
        </mxCell>
        <mxCell id="OtcmYywF1ps1R1fDcR3n-3" value="5" style="shape=partialRectangle;html=1;whiteSpace=wrap;connectable=0;strokeColor=inherit;overflow=hidden;fillColor=none;top=0;left=0;bottom=0;right=0;pointerEvents=1;fontSize=16;" vertex="1" parent="OtcmYywF1ps1R1fDcR3n-2">
          <mxGeometry width="39" height="40" as="geometry">
            <mxRectangle width="39" height="40" as="alternateBounds" />
          </mxGeometry>
        </mxCell>
        <mxCell id="OtcmYywF1ps1R1fDcR3n-4" value="2" style="shape=partialRectangle;html=1;whiteSpace=wrap;connectable=0;strokeColor=inherit;overflow=hidden;fillColor=none;top=0;left=0;bottom=0;right=0;pointerEvents=1;fontSize=16;" vertex="1" parent="OtcmYywF1ps1R1fDcR3n-2">
          <mxGeometry x="39" width="38" height="40" as="geometry">
            <mxRectangle width="38" height="40" as="alternateBounds" />
          </mxGeometry>
        </mxCell>
        <mxCell id="OtcmYywF1ps1R1fDcR3n-5" value="7" style="shape=partialRectangle;html=1;whiteSpace=wrap;connectable=0;strokeColor=inherit;overflow=hidden;fillColor=none;top=0;left=0;bottom=0;right=0;pointerEvents=1;fontSize=16;" vertex="1" parent="OtcmYywF1ps1R1fDcR3n-2">
          <mxGeometry x="77" width="38" height="40" as="geometry">
            <mxRectangle width="38" height="40" as="alternateBounds" />
          </mxGeometry>
        </mxCell>
        <mxCell id="OtcmYywF1ps1R1fDcR3n-14" value="8" style="shape=partialRectangle;html=1;whiteSpace=wrap;connectable=0;strokeColor=inherit;overflow=hidden;fillColor=none;top=0;left=0;bottom=0;right=0;pointerEvents=1;fontSize=16;" vertex="1" parent="OtcmYywF1ps1R1fDcR3n-2">
          <mxGeometry x="115" width="39" height="40" as="geometry">
            <mxRectangle width="39" height="40" as="alternateBounds" />
          </mxGeometry>
        </mxCell>
        <mxCell id="OtcmYywF1ps1R1fDcR3n-15" value="2" style="shape=partialRectangle;html=1;whiteSpace=wrap;connectable=0;strokeColor=inherit;overflow=hidden;fillColor=none;top=0;left=0;bottom=0;right=0;pointerEvents=1;fontSize=16;" vertex="1" parent="OtcmYywF1ps1R1fDcR3n-2">
          <mxGeometry x="154" width="39" height="40" as="geometry">
            <mxRectangle width="39" height="40" as="alternateBounds" />
          </mxGeometry>
        </mxCell>
        <mxCell id="OtcmYywF1ps1R1fDcR3n-16" value="6" style="shape=partialRectangle;html=1;whiteSpace=wrap;connectable=0;strokeColor=inherit;overflow=hidden;fillColor=none;top=0;left=0;bottom=0;right=0;pointerEvents=1;fontSize=16;" vertex="1" parent="OtcmYywF1ps1R1fDcR3n-2">
          <mxGeometry x="193" width="37" height="40" as="geometry">
            <mxRectangle width="37" height="40" as="alternateBounds" />
          </mxGeometry>
        </mxCell>
        <mxCell id="OtcmYywF1ps1R1fDcR3n-17" value="9" style="shape=partialRectangle;html=1;whiteSpace=wrap;connectable=0;strokeColor=inherit;overflow=hidden;fillColor=none;top=0;left=0;bottom=0;right=0;pointerEvents=1;fontSize=16;" vertex="1" parent="OtcmYywF1ps1R1fDcR3n-2">
          <mxGeometry x="230" width="39" height="40" as="geometry">
            <mxRectangle width="39" height="40" as="alternateBounds" />
          </mxGeometry>
        </mxCell>
        <mxCell id="OtcmYywF1ps1R1fDcR3n-18" value="8" style="shape=partialRectangle;html=1;whiteSpace=wrap;connectable=0;strokeColor=inherit;overflow=hidden;fillColor=none;top=0;left=0;bottom=0;right=0;pointerEvents=1;fontSize=16;" vertex="1" parent="OtcmYywF1ps1R1fDcR3n-2">
          <mxGeometry x="269" width="38" height="40" as="geometry">
            <mxRectangle width="38" height="40" as="alternateBounds" />
          </mxGeometry>
        </mxCell>
        <mxCell id="OtcmYywF1ps1R1fDcR3n-29" value="" style="shape=table;startSize=0;container=1;collapsible=0;childLayout=tableLayout;fontSize=16;" vertex="1" parent="1">
          <mxGeometry x="1376" y="1587" width="154" height="40" as="geometry" />
        </mxCell>
        <mxCell id="OtcmYywF1ps1R1fDcR3n-30" value="" style="shape=tableRow;horizontal=0;startSize=0;swimlaneHead=0;swimlaneBody=0;strokeColor=inherit;top=0;left=0;bottom=0;right=0;collapsible=0;dropTarget=0;fillColor=none;points=[[0,0.5],[1,0.5]];portConstraint=eastwest;fontSize=16;" vertex="1" parent="OtcmYywF1ps1R1fDcR3n-29">
          <mxGeometry width="154" height="40" as="geometry" />
        </mxCell>
        <mxCell id="OtcmYywF1ps1R1fDcR3n-31" value="5" style="shape=partialRectangle;html=1;whiteSpace=wrap;connectable=0;strokeColor=inherit;overflow=hidden;fillColor=none;top=0;left=0;bottom=0;right=0;pointerEvents=1;fontSize=16;" vertex="1" parent="OtcmYywF1ps1R1fDcR3n-30">
          <mxGeometry width="39" height="40" as="geometry">
            <mxRectangle width="39" height="40" as="alternateBounds" />
          </mxGeometry>
        </mxCell>
        <mxCell id="OtcmYywF1ps1R1fDcR3n-32" value="2" style="shape=partialRectangle;html=1;whiteSpace=wrap;connectable=0;strokeColor=inherit;overflow=hidden;fillColor=none;top=0;left=0;bottom=0;right=0;pointerEvents=1;fontSize=16;" vertex="1" parent="OtcmYywF1ps1R1fDcR3n-30">
          <mxGeometry x="39" width="38" height="40" as="geometry">
            <mxRectangle width="38" height="40" as="alternateBounds" />
          </mxGeometry>
        </mxCell>
        <mxCell id="OtcmYywF1ps1R1fDcR3n-33" value="7" style="shape=partialRectangle;html=1;whiteSpace=wrap;connectable=0;strokeColor=inherit;overflow=hidden;fillColor=none;top=0;left=0;bottom=0;right=0;pointerEvents=1;fontSize=16;" vertex="1" parent="OtcmYywF1ps1R1fDcR3n-30">
          <mxGeometry x="77" width="38" height="40" as="geometry">
            <mxRectangle width="38" height="40" as="alternateBounds" />
          </mxGeometry>
        </mxCell>
        <mxCell id="OtcmYywF1ps1R1fDcR3n-34" value="8" style="shape=partialRectangle;html=1;whiteSpace=wrap;connectable=0;strokeColor=inherit;overflow=hidden;fillColor=none;top=0;left=0;bottom=0;right=0;pointerEvents=1;fontSize=16;" vertex="1" parent="OtcmYywF1ps1R1fDcR3n-30">
          <mxGeometry x="115" width="39" height="40" as="geometry">
            <mxRectangle width="39" height="40" as="alternateBounds" />
          </mxGeometry>
        </mxCell>
        <mxCell id="OtcmYywF1ps1R1fDcR3n-40" value="" style="shape=table;startSize=0;container=1;collapsible=0;childLayout=tableLayout;fontSize=16;" vertex="1" parent="1">
          <mxGeometry x="1580" y="1589" width="154" height="40" as="geometry" />
        </mxCell>
        <mxCell id="OtcmYywF1ps1R1fDcR3n-41" value="" style="shape=tableRow;horizontal=0;startSize=0;swimlaneHead=0;swimlaneBody=0;strokeColor=inherit;top=0;left=0;bottom=0;right=0;collapsible=0;dropTarget=0;fillColor=none;points=[[0,0.5],[1,0.5]];portConstraint=eastwest;fontSize=16;" vertex="1" parent="OtcmYywF1ps1R1fDcR3n-40">
          <mxGeometry width="154" height="40" as="geometry" />
        </mxCell>
        <mxCell id="OtcmYywF1ps1R1fDcR3n-42" value="2" style="shape=partialRectangle;html=1;whiteSpace=wrap;connectable=0;strokeColor=inherit;overflow=hidden;fillColor=none;top=0;left=0;bottom=0;right=0;pointerEvents=1;fontSize=16;" vertex="1" parent="OtcmYywF1ps1R1fDcR3n-41">
          <mxGeometry width="39" height="40" as="geometry">
            <mxRectangle width="39" height="40" as="alternateBounds" />
          </mxGeometry>
        </mxCell>
        <mxCell id="OtcmYywF1ps1R1fDcR3n-43" value="6&lt;span style=&quot;white-space: pre;&quot;&gt;&#x9;&lt;/span&gt;" style="shape=partialRectangle;html=1;whiteSpace=wrap;connectable=0;strokeColor=inherit;overflow=hidden;fillColor=none;top=0;left=0;bottom=0;right=0;pointerEvents=1;fontSize=16;" vertex="1" parent="OtcmYywF1ps1R1fDcR3n-41">
          <mxGeometry x="39" width="38" height="40" as="geometry">
            <mxRectangle width="38" height="40" as="alternateBounds" />
          </mxGeometry>
        </mxCell>
        <mxCell id="OtcmYywF1ps1R1fDcR3n-44" value="9" style="shape=partialRectangle;html=1;whiteSpace=wrap;connectable=0;strokeColor=inherit;overflow=hidden;fillColor=none;top=0;left=0;bottom=0;right=0;pointerEvents=1;fontSize=16;" vertex="1" parent="OtcmYywF1ps1R1fDcR3n-41">
          <mxGeometry x="77" width="38" height="40" as="geometry">
            <mxRectangle width="38" height="40" as="alternateBounds" />
          </mxGeometry>
        </mxCell>
        <mxCell id="OtcmYywF1ps1R1fDcR3n-45" value="8" style="shape=partialRectangle;html=1;whiteSpace=wrap;connectable=0;strokeColor=inherit;overflow=hidden;fillColor=none;top=0;left=0;bottom=0;right=0;pointerEvents=1;fontSize=16;" vertex="1" parent="OtcmYywF1ps1R1fDcR3n-41">
          <mxGeometry x="115" width="39" height="40" as="geometry">
            <mxRectangle width="39" height="40" as="alternateBounds" />
          </mxGeometry>
        </mxCell>
        <mxCell id="OtcmYywF1ps1R1fDcR3n-69" value="" style="endArrow=classic;html=1;rounded=0;exitX=0.319;exitY=1.025;exitDx=0;exitDy=0;exitPerimeter=0;entryX=0.504;entryY=0.05;entryDx=0;entryDy=0;entryPerimeter=0;" edge="1" parent="1" source="OtcmYywF1ps1R1fDcR3n-2" target="OtcmYywF1ps1R1fDcR3n-30">
          <mxGeometry width="50" height="50" relative="1" as="geometry">
            <mxPoint x="1492" y="1605" as="sourcePoint" />
            <mxPoint x="1542" y="1555" as="targetPoint" />
          </mxGeometry>
        </mxCell>
        <mxCell id="OtcmYywF1ps1R1fDcR3n-70" value="" style="endArrow=classic;html=1;rounded=0;entryX=0.593;entryY=0;entryDx=0;entryDy=0;entryPerimeter=0;exitX=0.666;exitY=1.06;exitDx=0;exitDy=0;exitPerimeter=0;" edge="1" parent="1" source="OtcmYywF1ps1R1fDcR3n-2" target="OtcmYywF1ps1R1fDcR3n-41">
          <mxGeometry width="50" height="50" relative="1" as="geometry">
            <mxPoint x="1492" y="1605" as="sourcePoint" />
            <mxPoint x="1542" y="1555" as="targetPoint" />
          </mxGeometry>
        </mxCell>
        <mxCell id="OtcmYywF1ps1R1fDcR3n-74" value="" style="shape=table;startSize=0;container=1;collapsible=0;childLayout=tableLayout;fontSize=16;" vertex="1" parent="1">
          <mxGeometry x="1368.75" y="1685" width="77" height="40" as="geometry" />
        </mxCell>
        <mxCell id="OtcmYywF1ps1R1fDcR3n-75" value="" style="shape=tableRow;horizontal=0;startSize=0;swimlaneHead=0;swimlaneBody=0;strokeColor=inherit;top=0;left=0;bottom=0;right=0;collapsible=0;dropTarget=0;fillColor=none;points=[[0,0.5],[1,0.5]];portConstraint=eastwest;fontSize=16;" vertex="1" parent="OtcmYywF1ps1R1fDcR3n-74">
          <mxGeometry width="77" height="40" as="geometry" />
        </mxCell>
        <mxCell id="OtcmYywF1ps1R1fDcR3n-76" value="5" style="shape=partialRectangle;html=1;whiteSpace=wrap;connectable=0;strokeColor=inherit;overflow=hidden;fillColor=none;top=0;left=0;bottom=0;right=0;pointerEvents=1;fontSize=16;" vertex="1" parent="OtcmYywF1ps1R1fDcR3n-75">
          <mxGeometry width="39" height="40" as="geometry">
            <mxRectangle width="39" height="40" as="alternateBounds" />
          </mxGeometry>
        </mxCell>
        <mxCell id="OtcmYywF1ps1R1fDcR3n-77" value="2" style="shape=partialRectangle;html=1;whiteSpace=wrap;connectable=0;strokeColor=inherit;overflow=hidden;fillColor=none;top=0;left=0;bottom=0;right=0;pointerEvents=1;fontSize=16;" vertex="1" parent="OtcmYywF1ps1R1fDcR3n-75">
          <mxGeometry x="39" width="38" height="40" as="geometry">
            <mxRectangle width="38" height="40" as="alternateBounds" />
          </mxGeometry>
        </mxCell>
        <mxCell id="OtcmYywF1ps1R1fDcR3n-80" value="" style="shape=table;startSize=0;container=1;collapsible=0;childLayout=tableLayout;fontSize=16;" vertex="1" parent="1">
          <mxGeometry x="1468" y="1685" width="77" height="40" as="geometry" />
        </mxCell>
        <mxCell id="OtcmYywF1ps1R1fDcR3n-81" value="" style="shape=tableRow;horizontal=0;startSize=0;swimlaneHead=0;swimlaneBody=0;strokeColor=inherit;top=0;left=0;bottom=0;right=0;collapsible=0;dropTarget=0;fillColor=none;points=[[0,0.5],[1,0.5]];portConstraint=eastwest;fontSize=16;" vertex="1" parent="OtcmYywF1ps1R1fDcR3n-80">
          <mxGeometry width="77" height="40" as="geometry" />
        </mxCell>
        <mxCell id="OtcmYywF1ps1R1fDcR3n-82" value="7" style="shape=partialRectangle;html=1;whiteSpace=wrap;connectable=0;strokeColor=inherit;overflow=hidden;fillColor=none;top=0;left=0;bottom=0;right=0;pointerEvents=1;fontSize=16;" vertex="1" parent="OtcmYywF1ps1R1fDcR3n-81">
          <mxGeometry width="39" height="40" as="geometry">
            <mxRectangle width="39" height="40" as="alternateBounds" />
          </mxGeometry>
        </mxCell>
        <mxCell id="OtcmYywF1ps1R1fDcR3n-83" value="8" style="shape=partialRectangle;html=1;whiteSpace=wrap;connectable=0;strokeColor=inherit;overflow=hidden;fillColor=none;top=0;left=0;bottom=0;right=0;pointerEvents=1;fontSize=16;" vertex="1" parent="OtcmYywF1ps1R1fDcR3n-81">
          <mxGeometry x="39" width="38" height="40" as="geometry">
            <mxRectangle width="38" height="40" as="alternateBounds" />
          </mxGeometry>
        </mxCell>
        <mxCell id="OtcmYywF1ps1R1fDcR3n-84" value="" style="endArrow=classic;html=1;rounded=0;exitX=0.278;exitY=1.007;exitDx=0;exitDy=0;exitPerimeter=0;entryX=0.506;entryY=-0.07;entryDx=0;entryDy=0;entryPerimeter=0;" edge="1" parent="1" source="OtcmYywF1ps1R1fDcR3n-30" target="OtcmYywF1ps1R1fDcR3n-75">
          <mxGeometry width="50" height="50" relative="1" as="geometry">
            <mxPoint x="1492" y="1605" as="sourcePoint" />
            <mxPoint x="1542" y="1555" as="targetPoint" />
          </mxGeometry>
        </mxCell>
        <mxCell id="OtcmYywF1ps1R1fDcR3n-85" value="" style="endArrow=classic;html=1;rounded=0;exitX=0.753;exitY=1.059;exitDx=0;exitDy=0;exitPerimeter=0;entryX=0.518;entryY=-0.07;entryDx=0;entryDy=0;entryPerimeter=0;" edge="1" parent="1" source="OtcmYywF1ps1R1fDcR3n-30" target="OtcmYywF1ps1R1fDcR3n-81">
          <mxGeometry width="50" height="50" relative="1" as="geometry">
            <mxPoint x="1492" y="1605" as="sourcePoint" />
            <mxPoint x="1542" y="1555" as="targetPoint" />
          </mxGeometry>
        </mxCell>
        <mxCell id="OtcmYywF1ps1R1fDcR3n-86" value="" style="shape=table;startSize=0;container=1;collapsible=0;childLayout=tableLayout;fontSize=16;" vertex="1" parent="1">
          <mxGeometry x="1575" y="1687" width="77" height="40" as="geometry" />
        </mxCell>
        <mxCell id="OtcmYywF1ps1R1fDcR3n-87" value="" style="shape=tableRow;horizontal=0;startSize=0;swimlaneHead=0;swimlaneBody=0;strokeColor=inherit;top=0;left=0;bottom=0;right=0;collapsible=0;dropTarget=0;fillColor=none;points=[[0,0.5],[1,0.5]];portConstraint=eastwest;fontSize=16;" vertex="1" parent="OtcmYywF1ps1R1fDcR3n-86">
          <mxGeometry width="77" height="40" as="geometry" />
        </mxCell>
        <mxCell id="OtcmYywF1ps1R1fDcR3n-88" value="2" style="shape=partialRectangle;html=1;whiteSpace=wrap;connectable=0;strokeColor=inherit;overflow=hidden;fillColor=none;top=0;left=0;bottom=0;right=0;pointerEvents=1;fontSize=16;" vertex="1" parent="OtcmYywF1ps1R1fDcR3n-87">
          <mxGeometry width="39" height="40" as="geometry">
            <mxRectangle width="39" height="40" as="alternateBounds" />
          </mxGeometry>
        </mxCell>
        <mxCell id="OtcmYywF1ps1R1fDcR3n-89" value="6" style="shape=partialRectangle;html=1;whiteSpace=wrap;connectable=0;strokeColor=inherit;overflow=hidden;fillColor=none;top=0;left=0;bottom=0;right=0;pointerEvents=1;fontSize=16;" vertex="1" parent="OtcmYywF1ps1R1fDcR3n-87">
          <mxGeometry x="39" width="38" height="40" as="geometry">
            <mxRectangle width="38" height="40" as="alternateBounds" />
          </mxGeometry>
        </mxCell>
        <mxCell id="OtcmYywF1ps1R1fDcR3n-90" value="" style="shape=table;startSize=0;container=1;collapsible=0;childLayout=tableLayout;fontSize=16;" vertex="1" parent="1">
          <mxGeometry x="1674.25" y="1687" width="77" height="40" as="geometry" />
        </mxCell>
        <mxCell id="OtcmYywF1ps1R1fDcR3n-91" value="" style="shape=tableRow;horizontal=0;startSize=0;swimlaneHead=0;swimlaneBody=0;strokeColor=inherit;top=0;left=0;bottom=0;right=0;collapsible=0;dropTarget=0;fillColor=none;points=[[0,0.5],[1,0.5]];portConstraint=eastwest;fontSize=16;" vertex="1" parent="OtcmYywF1ps1R1fDcR3n-90">
          <mxGeometry width="77" height="40" as="geometry" />
        </mxCell>
        <mxCell id="OtcmYywF1ps1R1fDcR3n-92" value="9" style="shape=partialRectangle;html=1;whiteSpace=wrap;connectable=0;strokeColor=inherit;overflow=hidden;fillColor=none;top=0;left=0;bottom=0;right=0;pointerEvents=1;fontSize=16;" vertex="1" parent="OtcmYywF1ps1R1fDcR3n-91">
          <mxGeometry width="39" height="40" as="geometry">
            <mxRectangle width="39" height="40" as="alternateBounds" />
          </mxGeometry>
        </mxCell>
        <mxCell id="OtcmYywF1ps1R1fDcR3n-93" value="8" style="shape=partialRectangle;html=1;whiteSpace=wrap;connectable=0;strokeColor=inherit;overflow=hidden;fillColor=none;top=0;left=0;bottom=0;right=0;pointerEvents=1;fontSize=16;" vertex="1" parent="OtcmYywF1ps1R1fDcR3n-91">
          <mxGeometry x="39" width="38" height="40" as="geometry">
            <mxRectangle width="38" height="40" as="alternateBounds" />
          </mxGeometry>
        </mxCell>
        <mxCell id="OtcmYywF1ps1R1fDcR3n-94" value="" style="endArrow=classic;html=1;rounded=0;exitX=0.278;exitY=1.007;exitDx=0;exitDy=0;exitPerimeter=0;entryX=0.506;entryY=-0.07;entryDx=0;entryDy=0;entryPerimeter=0;" edge="1" parent="1" target="OtcmYywF1ps1R1fDcR3n-87">
          <mxGeometry width="50" height="50" relative="1" as="geometry">
            <mxPoint x="1625.25" y="1629" as="sourcePoint" />
            <mxPoint x="1748.25" y="1557" as="targetPoint" />
          </mxGeometry>
        </mxCell>
        <mxCell id="OtcmYywF1ps1R1fDcR3n-95" value="" style="endArrow=classic;html=1;rounded=0;exitX=0.753;exitY=1.059;exitDx=0;exitDy=0;exitPerimeter=0;entryX=0.518;entryY=-0.07;entryDx=0;entryDy=0;entryPerimeter=0;" edge="1" parent="1" target="OtcmYywF1ps1R1fDcR3n-91">
          <mxGeometry width="50" height="50" relative="1" as="geometry">
            <mxPoint x="1698.25" y="1631" as="sourcePoint" />
            <mxPoint x="1748.25" y="1557" as="targetPoint" />
          </mxGeometry>
        </mxCell>
        <mxCell id="OtcmYywF1ps1R1fDcR3n-96" value="" style="shape=table;startSize=0;container=1;collapsible=0;childLayout=tableLayout;fontSize=16;" vertex="1" parent="1">
          <mxGeometry x="1309.25" y="1764" width="39" height="40" as="geometry" />
        </mxCell>
        <mxCell id="OtcmYywF1ps1R1fDcR3n-97" value="" style="shape=tableRow;horizontal=0;startSize=0;swimlaneHead=0;swimlaneBody=0;strokeColor=inherit;top=0;left=0;bottom=0;right=0;collapsible=0;dropTarget=0;fillColor=none;points=[[0,0.5],[1,0.5]];portConstraint=eastwest;fontSize=16;" vertex="1" parent="OtcmYywF1ps1R1fDcR3n-96">
          <mxGeometry width="39" height="40" as="geometry" />
        </mxCell>
        <mxCell id="OtcmYywF1ps1R1fDcR3n-98" value="5" style="shape=partialRectangle;html=1;whiteSpace=wrap;connectable=0;strokeColor=inherit;overflow=hidden;fillColor=none;top=0;left=0;bottom=0;right=0;pointerEvents=1;fontSize=16;" vertex="1" parent="OtcmYywF1ps1R1fDcR3n-97">
          <mxGeometry width="39" height="40" as="geometry">
            <mxRectangle width="39" height="40" as="alternateBounds" />
          </mxGeometry>
        </mxCell>
        <mxCell id="OtcmYywF1ps1R1fDcR3n-100" value="" style="shape=table;startSize=0;container=1;collapsible=0;childLayout=tableLayout;fontSize=16;" vertex="1" parent="1">
          <mxGeometry x="1387.75" y="1764" width="39" height="40" as="geometry" />
        </mxCell>
        <mxCell id="OtcmYywF1ps1R1fDcR3n-101" value="" style="shape=tableRow;horizontal=0;startSize=0;swimlaneHead=0;swimlaneBody=0;strokeColor=inherit;top=0;left=0;bottom=0;right=0;collapsible=0;dropTarget=0;fillColor=none;points=[[0,0.5],[1,0.5]];portConstraint=eastwest;fontSize=16;" vertex="1" parent="OtcmYywF1ps1R1fDcR3n-100">
          <mxGeometry width="39" height="40" as="geometry" />
        </mxCell>
        <mxCell id="OtcmYywF1ps1R1fDcR3n-102" value="2" style="shape=partialRectangle;html=1;whiteSpace=wrap;connectable=0;strokeColor=inherit;overflow=hidden;fillColor=none;top=0;left=0;bottom=0;right=0;pointerEvents=1;fontSize=16;" vertex="1" parent="OtcmYywF1ps1R1fDcR3n-101">
          <mxGeometry width="39" height="40" as="geometry">
            <mxRectangle width="39" height="40" as="alternateBounds" />
          </mxGeometry>
        </mxCell>
        <mxCell id="OtcmYywF1ps1R1fDcR3n-103" value="" style="endArrow=classic;html=1;rounded=0;exitX=0.208;exitY=0.974;exitDx=0;exitDy=0;exitPerimeter=0;entryX=0.532;entryY=-0.027;entryDx=0;entryDy=0;entryPerimeter=0;" edge="1" parent="1" source="OtcmYywF1ps1R1fDcR3n-75" target="OtcmYywF1ps1R1fDcR3n-97">
          <mxGeometry width="50" height="50" relative="1" as="geometry">
            <mxPoint x="1492" y="1605" as="sourcePoint" />
            <mxPoint x="1542" y="1555" as="targetPoint" />
          </mxGeometry>
        </mxCell>
        <mxCell id="OtcmYywF1ps1R1fDcR3n-104" value="" style="endArrow=classic;html=1;rounded=0;exitX=0.777;exitY=1.009;exitDx=0;exitDy=0;exitPerimeter=0;entryX=0.532;entryY=0.008;entryDx=0;entryDy=0;entryPerimeter=0;" edge="1" parent="1" source="OtcmYywF1ps1R1fDcR3n-75" target="OtcmYywF1ps1R1fDcR3n-101">
          <mxGeometry width="50" height="50" relative="1" as="geometry">
            <mxPoint x="1492" y="1605" as="sourcePoint" />
            <mxPoint x="1542" y="1555" as="targetPoint" />
          </mxGeometry>
        </mxCell>
        <mxCell id="OtcmYywF1ps1R1fDcR3n-105" value="" style="shape=table;startSize=0;container=1;collapsible=0;childLayout=tableLayout;fontSize=16;" vertex="1" parent="1">
          <mxGeometry x="1449" y="1764" width="39" height="40" as="geometry" />
        </mxCell>
        <mxCell id="OtcmYywF1ps1R1fDcR3n-106" value="" style="shape=tableRow;horizontal=0;startSize=0;swimlaneHead=0;swimlaneBody=0;strokeColor=inherit;top=0;left=0;bottom=0;right=0;collapsible=0;dropTarget=0;fillColor=none;points=[[0,0.5],[1,0.5]];portConstraint=eastwest;fontSize=16;" vertex="1" parent="OtcmYywF1ps1R1fDcR3n-105">
          <mxGeometry width="39" height="40" as="geometry" />
        </mxCell>
        <mxCell id="OtcmYywF1ps1R1fDcR3n-107" value="7" style="shape=partialRectangle;html=1;whiteSpace=wrap;connectable=0;strokeColor=inherit;overflow=hidden;fillColor=none;top=0;left=0;bottom=0;right=0;pointerEvents=1;fontSize=16;" vertex="1" parent="OtcmYywF1ps1R1fDcR3n-106">
          <mxGeometry width="39" height="40" as="geometry">
            <mxRectangle width="39" height="40" as="alternateBounds" />
          </mxGeometry>
        </mxCell>
        <mxCell id="OtcmYywF1ps1R1fDcR3n-108" value="" style="shape=table;startSize=0;container=1;collapsible=0;childLayout=tableLayout;fontSize=16;" vertex="1" parent="1">
          <mxGeometry x="1508" y="1764" width="39" height="40" as="geometry" />
        </mxCell>
        <mxCell id="OtcmYywF1ps1R1fDcR3n-109" value="" style="shape=tableRow;horizontal=0;startSize=0;swimlaneHead=0;swimlaneBody=0;strokeColor=inherit;top=0;left=0;bottom=0;right=0;collapsible=0;dropTarget=0;fillColor=none;points=[[0,0.5],[1,0.5]];portConstraint=eastwest;fontSize=16;" vertex="1" parent="OtcmYywF1ps1R1fDcR3n-108">
          <mxGeometry width="39" height="40" as="geometry" />
        </mxCell>
        <mxCell id="OtcmYywF1ps1R1fDcR3n-110" value="8" style="shape=partialRectangle;html=1;whiteSpace=wrap;connectable=0;strokeColor=inherit;overflow=hidden;fillColor=none;top=0;left=0;bottom=0;right=0;pointerEvents=1;fontSize=16;" vertex="1" parent="OtcmYywF1ps1R1fDcR3n-109">
          <mxGeometry width="39" height="40" as="geometry">
            <mxRectangle width="39" height="40" as="alternateBounds" />
          </mxGeometry>
        </mxCell>
        <mxCell id="OtcmYywF1ps1R1fDcR3n-111" value="" style="endArrow=classic;html=1;rounded=0;exitX=0.208;exitY=0.974;exitDx=0;exitDy=0;exitPerimeter=0;entryX=0.532;entryY=-0.027;entryDx=0;entryDy=0;entryPerimeter=0;" edge="1" target="OtcmYywF1ps1R1fDcR3n-106" parent="1">
          <mxGeometry width="50" height="50" relative="1" as="geometry">
            <mxPoint x="1491" y="1727.04" as="sourcePoint" />
            <mxPoint x="1648" y="1558.04" as="targetPoint" />
          </mxGeometry>
        </mxCell>
        <mxCell id="OtcmYywF1ps1R1fDcR3n-112" value="" style="endArrow=classic;html=1;rounded=0;exitX=0.777;exitY=1.009;exitDx=0;exitDy=0;exitPerimeter=0;entryX=0.532;entryY=0.008;entryDx=0;entryDy=0;entryPerimeter=0;" edge="1" target="OtcmYywF1ps1R1fDcR3n-109" parent="1">
          <mxGeometry width="50" height="50" relative="1" as="geometry">
            <mxPoint x="1535" y="1728.04" as="sourcePoint" />
            <mxPoint x="1648" y="1558.04" as="targetPoint" />
          </mxGeometry>
        </mxCell>
        <mxCell id="OtcmYywF1ps1R1fDcR3n-113" value="" style="shape=table;startSize=0;container=1;collapsible=0;childLayout=tableLayout;fontSize=16;" vertex="1" parent="1">
          <mxGeometry x="1578" y="1765" width="39" height="40" as="geometry" />
        </mxCell>
        <mxCell id="OtcmYywF1ps1R1fDcR3n-114" value="" style="shape=tableRow;horizontal=0;startSize=0;swimlaneHead=0;swimlaneBody=0;strokeColor=inherit;top=0;left=0;bottom=0;right=0;collapsible=0;dropTarget=0;fillColor=none;points=[[0,0.5],[1,0.5]];portConstraint=eastwest;fontSize=16;" vertex="1" parent="OtcmYywF1ps1R1fDcR3n-113">
          <mxGeometry width="39" height="40" as="geometry" />
        </mxCell>
        <mxCell id="OtcmYywF1ps1R1fDcR3n-115" value="2" style="shape=partialRectangle;html=1;whiteSpace=wrap;connectable=0;strokeColor=inherit;overflow=hidden;fillColor=none;top=0;left=0;bottom=0;right=0;pointerEvents=1;fontSize=16;" vertex="1" parent="OtcmYywF1ps1R1fDcR3n-114">
          <mxGeometry width="39" height="40" as="geometry">
            <mxRectangle width="39" height="40" as="alternateBounds" />
          </mxGeometry>
        </mxCell>
        <mxCell id="OtcmYywF1ps1R1fDcR3n-116" value="" style="shape=table;startSize=0;container=1;collapsible=0;childLayout=tableLayout;fontSize=16;" vertex="1" parent="1">
          <mxGeometry x="1640" y="1766" width="39" height="40" as="geometry" />
        </mxCell>
        <mxCell id="OtcmYywF1ps1R1fDcR3n-117" value="" style="shape=tableRow;horizontal=0;startSize=0;swimlaneHead=0;swimlaneBody=0;strokeColor=inherit;top=0;left=0;bottom=0;right=0;collapsible=0;dropTarget=0;fillColor=none;points=[[0,0.5],[1,0.5]];portConstraint=eastwest;fontSize=16;" vertex="1" parent="OtcmYywF1ps1R1fDcR3n-116">
          <mxGeometry width="39" height="40" as="geometry" />
        </mxCell>
        <mxCell id="OtcmYywF1ps1R1fDcR3n-118" value="6" style="shape=partialRectangle;html=1;whiteSpace=wrap;connectable=0;strokeColor=inherit;overflow=hidden;fillColor=none;top=0;left=0;bottom=0;right=0;pointerEvents=1;fontSize=16;" vertex="1" parent="OtcmYywF1ps1R1fDcR3n-117">
          <mxGeometry width="39" height="40" as="geometry">
            <mxRectangle width="39" height="40" as="alternateBounds" />
          </mxGeometry>
        </mxCell>
        <mxCell id="OtcmYywF1ps1R1fDcR3n-119" value="" style="endArrow=classic;html=1;rounded=0;exitX=0.208;exitY=0.974;exitDx=0;exitDy=0;exitPerimeter=0;entryX=0.532;entryY=-0.027;entryDx=0;entryDy=0;entryPerimeter=0;" edge="1" target="OtcmYywF1ps1R1fDcR3n-114" parent="1">
          <mxGeometry width="50" height="50" relative="1" as="geometry">
            <mxPoint x="1598" y="1729" as="sourcePoint" />
            <mxPoint x="1755" y="1560" as="targetPoint" />
          </mxGeometry>
        </mxCell>
        <mxCell id="OtcmYywF1ps1R1fDcR3n-120" value="" style="endArrow=classic;html=1;rounded=0;exitX=0.777;exitY=1.009;exitDx=0;exitDy=0;exitPerimeter=0;entryX=0.532;entryY=0.008;entryDx=0;entryDy=0;entryPerimeter=0;" edge="1" target="OtcmYywF1ps1R1fDcR3n-117" parent="1">
          <mxGeometry width="50" height="50" relative="1" as="geometry">
            <mxPoint x="1642" y="1730" as="sourcePoint" />
            <mxPoint x="1755" y="1560" as="targetPoint" />
          </mxGeometry>
        </mxCell>
        <mxCell id="OtcmYywF1ps1R1fDcR3n-121" value="" style="shape=table;startSize=0;container=1;collapsible=0;childLayout=tableLayout;fontSize=16;" vertex="1" parent="1">
          <mxGeometry x="1698" y="1766" width="39" height="40" as="geometry" />
        </mxCell>
        <mxCell id="OtcmYywF1ps1R1fDcR3n-122" value="" style="shape=tableRow;horizontal=0;startSize=0;swimlaneHead=0;swimlaneBody=0;strokeColor=inherit;top=0;left=0;bottom=0;right=0;collapsible=0;dropTarget=0;fillColor=none;points=[[0,0.5],[1,0.5]];portConstraint=eastwest;fontSize=16;" vertex="1" parent="OtcmYywF1ps1R1fDcR3n-121">
          <mxGeometry width="39" height="40" as="geometry" />
        </mxCell>
        <mxCell id="OtcmYywF1ps1R1fDcR3n-123" value="9" style="shape=partialRectangle;html=1;whiteSpace=wrap;connectable=0;strokeColor=inherit;overflow=hidden;fillColor=none;top=0;left=0;bottom=0;right=0;pointerEvents=1;fontSize=16;" vertex="1" parent="OtcmYywF1ps1R1fDcR3n-122">
          <mxGeometry width="39" height="40" as="geometry">
            <mxRectangle width="39" height="40" as="alternateBounds" />
          </mxGeometry>
        </mxCell>
        <mxCell id="OtcmYywF1ps1R1fDcR3n-124" value="" style="shape=table;startSize=0;container=1;collapsible=0;childLayout=tableLayout;fontSize=16;" vertex="1" parent="1">
          <mxGeometry x="1780.5" y="1766" width="39" height="40" as="geometry" />
        </mxCell>
        <mxCell id="OtcmYywF1ps1R1fDcR3n-125" value="" style="shape=tableRow;horizontal=0;startSize=0;swimlaneHead=0;swimlaneBody=0;strokeColor=inherit;top=0;left=0;bottom=0;right=0;collapsible=0;dropTarget=0;fillColor=none;points=[[0,0.5],[1,0.5]];portConstraint=eastwest;fontSize=16;" vertex="1" parent="OtcmYywF1ps1R1fDcR3n-124">
          <mxGeometry width="39" height="40" as="geometry" />
        </mxCell>
        <mxCell id="OtcmYywF1ps1R1fDcR3n-126" value="8" style="shape=partialRectangle;html=1;whiteSpace=wrap;connectable=0;strokeColor=inherit;overflow=hidden;fillColor=none;top=0;left=0;bottom=0;right=0;pointerEvents=1;fontSize=16;" vertex="1" parent="OtcmYywF1ps1R1fDcR3n-125">
          <mxGeometry width="39" height="40" as="geometry">
            <mxRectangle width="39" height="40" as="alternateBounds" />
          </mxGeometry>
        </mxCell>
        <mxCell id="OtcmYywF1ps1R1fDcR3n-127" value="" style="endArrow=classic;html=1;rounded=0;exitX=0.208;exitY=0.974;exitDx=0;exitDy=0;exitPerimeter=0;entryX=0.532;entryY=-0.027;entryDx=0;entryDy=0;entryPerimeter=0;" edge="1" target="OtcmYywF1ps1R1fDcR3n-122" parent="1">
          <mxGeometry width="50" height="50" relative="1" as="geometry">
            <mxPoint x="1702" y="1729" as="sourcePoint" />
            <mxPoint x="1859" y="1560" as="targetPoint" />
          </mxGeometry>
        </mxCell>
        <mxCell id="OtcmYywF1ps1R1fDcR3n-128" value="" style="endArrow=classic;html=1;rounded=0;exitX=0.777;exitY=1.009;exitDx=0;exitDy=0;exitPerimeter=0;entryX=0.532;entryY=0.008;entryDx=0;entryDy=0;entryPerimeter=0;" edge="1" target="OtcmYywF1ps1R1fDcR3n-125" parent="1">
          <mxGeometry width="50" height="50" relative="1" as="geometry">
            <mxPoint x="1746" y="1730" as="sourcePoint" />
            <mxPoint x="1859" y="1560" as="targetPoint" />
          </mxGeometry>
        </mxCell>
        <mxCell id="OtcmYywF1ps1R1fDcR3n-129" value="" style="shape=table;startSize=0;container=1;collapsible=0;childLayout=tableLayout;fontSize=16;" vertex="1" parent="1">
          <mxGeometry x="1334" y="1840" width="77" height="40" as="geometry" />
        </mxCell>
        <mxCell id="OtcmYywF1ps1R1fDcR3n-130" value="" style="shape=tableRow;horizontal=0;startSize=0;swimlaneHead=0;swimlaneBody=0;strokeColor=inherit;top=0;left=0;bottom=0;right=0;collapsible=0;dropTarget=0;fillColor=none;points=[[0,0.5],[1,0.5]];portConstraint=eastwest;fontSize=16;" vertex="1" parent="OtcmYywF1ps1R1fDcR3n-129">
          <mxGeometry width="77" height="40" as="geometry" />
        </mxCell>
        <mxCell id="OtcmYywF1ps1R1fDcR3n-131" value="2" style="shape=partialRectangle;html=1;whiteSpace=wrap;connectable=0;strokeColor=inherit;overflow=hidden;fillColor=none;top=0;left=0;bottom=0;right=0;pointerEvents=1;fontSize=16;" vertex="1" parent="OtcmYywF1ps1R1fDcR3n-130">
          <mxGeometry width="39" height="40" as="geometry">
            <mxRectangle width="39" height="40" as="alternateBounds" />
          </mxGeometry>
        </mxCell>
        <mxCell id="OtcmYywF1ps1R1fDcR3n-132" value="5" style="shape=partialRectangle;html=1;whiteSpace=wrap;connectable=0;strokeColor=inherit;overflow=hidden;fillColor=none;top=0;left=0;bottom=0;right=0;pointerEvents=1;fontSize=16;" vertex="1" parent="OtcmYywF1ps1R1fDcR3n-130">
          <mxGeometry x="39" width="38" height="40" as="geometry">
            <mxRectangle width="38" height="40" as="alternateBounds" />
          </mxGeometry>
        </mxCell>
        <mxCell id="OtcmYywF1ps1R1fDcR3n-133" value="" style="endArrow=classic;html=1;rounded=0;exitX=0.528;exitY=0.982;exitDx=0;exitDy=0;exitPerimeter=0;entryX=0.28;entryY=-0.032;entryDx=0;entryDy=0;entryPerimeter=0;" edge="1" parent="1" source="OtcmYywF1ps1R1fDcR3n-97" target="OtcmYywF1ps1R1fDcR3n-130">
          <mxGeometry width="50" height="50" relative="1" as="geometry">
            <mxPoint x="1614" y="1866" as="sourcePoint" />
            <mxPoint x="1664" y="1816" as="targetPoint" />
          </mxGeometry>
        </mxCell>
        <mxCell id="OtcmYywF1ps1R1fDcR3n-134" value="" style="endArrow=classic;html=1;rounded=0;exitX=0.441;exitY=1.068;exitDx=0;exitDy=0;exitPerimeter=0;entryX=0.723;entryY=-0.084;entryDx=0;entryDy=0;entryPerimeter=0;" edge="1" parent="1" source="OtcmYywF1ps1R1fDcR3n-101" target="OtcmYywF1ps1R1fDcR3n-130">
          <mxGeometry width="50" height="50" relative="1" as="geometry">
            <mxPoint x="1614" y="1866" as="sourcePoint" />
            <mxPoint x="1664" y="1816" as="targetPoint" />
          </mxGeometry>
        </mxCell>
        <mxCell id="OtcmYywF1ps1R1fDcR3n-135" value="" style="shape=table;startSize=0;container=1;collapsible=0;childLayout=tableLayout;fontSize=16;" vertex="1" parent="1">
          <mxGeometry x="1464" y="1840" width="77" height="40" as="geometry" />
        </mxCell>
        <mxCell id="OtcmYywF1ps1R1fDcR3n-136" value="" style="shape=tableRow;horizontal=0;startSize=0;swimlaneHead=0;swimlaneBody=0;strokeColor=inherit;top=0;left=0;bottom=0;right=0;collapsible=0;dropTarget=0;fillColor=none;points=[[0,0.5],[1,0.5]];portConstraint=eastwest;fontSize=16;" vertex="1" parent="OtcmYywF1ps1R1fDcR3n-135">
          <mxGeometry width="77" height="40" as="geometry" />
        </mxCell>
        <mxCell id="OtcmYywF1ps1R1fDcR3n-137" value="7" style="shape=partialRectangle;html=1;whiteSpace=wrap;connectable=0;strokeColor=inherit;overflow=hidden;fillColor=none;top=0;left=0;bottom=0;right=0;pointerEvents=1;fontSize=16;" vertex="1" parent="OtcmYywF1ps1R1fDcR3n-136">
          <mxGeometry width="39" height="40" as="geometry">
            <mxRectangle width="39" height="40" as="alternateBounds" />
          </mxGeometry>
        </mxCell>
        <mxCell id="OtcmYywF1ps1R1fDcR3n-138" value="8" style="shape=partialRectangle;html=1;whiteSpace=wrap;connectable=0;strokeColor=inherit;overflow=hidden;fillColor=none;top=0;left=0;bottom=0;right=0;pointerEvents=1;fontSize=16;" vertex="1" parent="OtcmYywF1ps1R1fDcR3n-136">
          <mxGeometry x="39" width="38" height="40" as="geometry">
            <mxRectangle width="38" height="40" as="alternateBounds" />
          </mxGeometry>
        </mxCell>
        <mxCell id="OtcmYywF1ps1R1fDcR3n-139" value="" style="endArrow=classic;html=1;rounded=0;entryX=0.28;entryY=-0.032;entryDx=0;entryDy=0;entryPerimeter=0;" edge="1" parent="1" target="OtcmYywF1ps1R1fDcR3n-136">
          <mxGeometry width="50" height="50" relative="1" as="geometry">
            <mxPoint x="1468" y="1805" as="sourcePoint" />
            <mxPoint x="1794" y="1813" as="targetPoint" />
          </mxGeometry>
        </mxCell>
        <mxCell id="OtcmYywF1ps1R1fDcR3n-140" value="" style="endArrow=classic;html=1;rounded=0;exitX=0.441;exitY=1.068;exitDx=0;exitDy=0;exitPerimeter=0;entryX=0.723;entryY=-0.084;entryDx=0;entryDy=0;entryPerimeter=0;" edge="1" parent="1" target="OtcmYywF1ps1R1fDcR3n-136">
          <mxGeometry width="50" height="50" relative="1" as="geometry">
            <mxPoint x="1535" y="1804" as="sourcePoint" />
            <mxPoint x="1794" y="1813" as="targetPoint" />
          </mxGeometry>
        </mxCell>
        <mxCell id="OtcmYywF1ps1R1fDcR3n-141" value="" style="shape=table;startSize=0;container=1;collapsible=0;childLayout=tableLayout;fontSize=16;" vertex="1" parent="1">
          <mxGeometry x="1588" y="1842" width="77" height="40" as="geometry" />
        </mxCell>
        <mxCell id="OtcmYywF1ps1R1fDcR3n-142" value="" style="shape=tableRow;horizontal=0;startSize=0;swimlaneHead=0;swimlaneBody=0;strokeColor=inherit;top=0;left=0;bottom=0;right=0;collapsible=0;dropTarget=0;fillColor=none;points=[[0,0.5],[1,0.5]];portConstraint=eastwest;fontSize=16;" vertex="1" parent="OtcmYywF1ps1R1fDcR3n-141">
          <mxGeometry width="77" height="40" as="geometry" />
        </mxCell>
        <mxCell id="OtcmYywF1ps1R1fDcR3n-143" value="2" style="shape=partialRectangle;html=1;whiteSpace=wrap;connectable=0;strokeColor=inherit;overflow=hidden;fillColor=none;top=0;left=0;bottom=0;right=0;pointerEvents=1;fontSize=16;" vertex="1" parent="OtcmYywF1ps1R1fDcR3n-142">
          <mxGeometry width="39" height="40" as="geometry">
            <mxRectangle width="39" height="40" as="alternateBounds" />
          </mxGeometry>
        </mxCell>
        <mxCell id="OtcmYywF1ps1R1fDcR3n-144" value="6" style="shape=partialRectangle;html=1;whiteSpace=wrap;connectable=0;strokeColor=inherit;overflow=hidden;fillColor=none;top=0;left=0;bottom=0;right=0;pointerEvents=1;fontSize=16;" vertex="1" parent="OtcmYywF1ps1R1fDcR3n-142">
          <mxGeometry x="39" width="38" height="40" as="geometry">
            <mxRectangle width="38" height="40" as="alternateBounds" />
          </mxGeometry>
        </mxCell>
        <mxCell id="OtcmYywF1ps1R1fDcR3n-145" value="" style="endArrow=classic;html=1;rounded=0;entryX=0.28;entryY=-0.032;entryDx=0;entryDy=0;entryPerimeter=0;" edge="1" parent="1" target="OtcmYywF1ps1R1fDcR3n-142">
          <mxGeometry width="50" height="50" relative="1" as="geometry">
            <mxPoint x="1592" y="1807" as="sourcePoint" />
            <mxPoint x="1918" y="1815" as="targetPoint" />
          </mxGeometry>
        </mxCell>
        <mxCell id="OtcmYywF1ps1R1fDcR3n-146" value="" style="endArrow=classic;html=1;rounded=0;exitX=0.441;exitY=1.068;exitDx=0;exitDy=0;exitPerimeter=0;entryX=0.723;entryY=-0.084;entryDx=0;entryDy=0;entryPerimeter=0;" edge="1" parent="1" target="OtcmYywF1ps1R1fDcR3n-142">
          <mxGeometry width="50" height="50" relative="1" as="geometry">
            <mxPoint x="1659" y="1806" as="sourcePoint" />
            <mxPoint x="1918" y="1815" as="targetPoint" />
          </mxGeometry>
        </mxCell>
        <mxCell id="OtcmYywF1ps1R1fDcR3n-147" value="" style="shape=table;startSize=0;container=1;collapsible=0;childLayout=tableLayout;fontSize=16;" vertex="1" parent="1">
          <mxGeometry x="1716" y="1842" width="77" height="40" as="geometry" />
        </mxCell>
        <mxCell id="OtcmYywF1ps1R1fDcR3n-148" value="" style="shape=tableRow;horizontal=0;startSize=0;swimlaneHead=0;swimlaneBody=0;strokeColor=inherit;top=0;left=0;bottom=0;right=0;collapsible=0;dropTarget=0;fillColor=none;points=[[0,0.5],[1,0.5]];portConstraint=eastwest;fontSize=16;" vertex="1" parent="OtcmYywF1ps1R1fDcR3n-147">
          <mxGeometry width="77" height="40" as="geometry" />
        </mxCell>
        <mxCell id="OtcmYywF1ps1R1fDcR3n-149" value="8" style="shape=partialRectangle;html=1;whiteSpace=wrap;connectable=0;strokeColor=inherit;overflow=hidden;fillColor=none;top=0;left=0;bottom=0;right=0;pointerEvents=1;fontSize=16;" vertex="1" parent="OtcmYywF1ps1R1fDcR3n-148">
          <mxGeometry width="39" height="40" as="geometry">
            <mxRectangle width="39" height="40" as="alternateBounds" />
          </mxGeometry>
        </mxCell>
        <mxCell id="OtcmYywF1ps1R1fDcR3n-150" value="9" style="shape=partialRectangle;html=1;whiteSpace=wrap;connectable=0;strokeColor=inherit;overflow=hidden;fillColor=none;top=0;left=0;bottom=0;right=0;pointerEvents=1;fontSize=16;" vertex="1" parent="OtcmYywF1ps1R1fDcR3n-148">
          <mxGeometry x="39" width="38" height="40" as="geometry">
            <mxRectangle width="38" height="40" as="alternateBounds" />
          </mxGeometry>
        </mxCell>
        <mxCell id="OtcmYywF1ps1R1fDcR3n-151" value="" style="endArrow=classic;html=1;rounded=0;entryX=0.28;entryY=-0.032;entryDx=0;entryDy=0;entryPerimeter=0;" edge="1" parent="1" target="OtcmYywF1ps1R1fDcR3n-148">
          <mxGeometry width="50" height="50" relative="1" as="geometry">
            <mxPoint x="1720" y="1807" as="sourcePoint" />
            <mxPoint x="2046" y="1815" as="targetPoint" />
          </mxGeometry>
        </mxCell>
        <mxCell id="OtcmYywF1ps1R1fDcR3n-152" value="" style="endArrow=classic;html=1;rounded=0;exitX=0.36;exitY=1.018;exitDx=0;exitDy=0;exitPerimeter=0;entryX=0.723;entryY=-0.084;entryDx=0;entryDy=0;entryPerimeter=0;" edge="1" parent="1" target="OtcmYywF1ps1R1fDcR3n-148" source="OtcmYywF1ps1R1fDcR3n-125">
          <mxGeometry width="50" height="50" relative="1" as="geometry">
            <mxPoint x="1787" y="1806" as="sourcePoint" />
            <mxPoint x="2046" y="1815" as="targetPoint" />
          </mxGeometry>
        </mxCell>
        <mxCell id="OtcmYywF1ps1R1fDcR3n-156" value="" style="shape=table;startSize=0;container=1;collapsible=0;childLayout=tableLayout;fontSize=16;" vertex="1" parent="1">
          <mxGeometry x="1362" y="1925" width="154" height="40" as="geometry" />
        </mxCell>
        <mxCell id="OtcmYywF1ps1R1fDcR3n-157" value="" style="shape=tableRow;horizontal=0;startSize=0;swimlaneHead=0;swimlaneBody=0;strokeColor=inherit;top=0;left=0;bottom=0;right=0;collapsible=0;dropTarget=0;fillColor=none;points=[[0,0.5],[1,0.5]];portConstraint=eastwest;fontSize=16;" vertex="1" parent="OtcmYywF1ps1R1fDcR3n-156">
          <mxGeometry width="154" height="40" as="geometry" />
        </mxCell>
        <mxCell id="OtcmYywF1ps1R1fDcR3n-158" value="2" style="shape=partialRectangle;html=1;whiteSpace=wrap;connectable=0;strokeColor=inherit;overflow=hidden;fillColor=none;top=0;left=0;bottom=0;right=0;pointerEvents=1;fontSize=16;" vertex="1" parent="OtcmYywF1ps1R1fDcR3n-157">
          <mxGeometry width="39" height="40" as="geometry">
            <mxRectangle width="39" height="40" as="alternateBounds" />
          </mxGeometry>
        </mxCell>
        <mxCell id="OtcmYywF1ps1R1fDcR3n-159" value="5" style="shape=partialRectangle;html=1;whiteSpace=wrap;connectable=0;strokeColor=inherit;overflow=hidden;fillColor=none;top=0;left=0;bottom=0;right=0;pointerEvents=1;fontSize=16;" vertex="1" parent="OtcmYywF1ps1R1fDcR3n-157">
          <mxGeometry x="39" width="38" height="40" as="geometry">
            <mxRectangle width="38" height="40" as="alternateBounds" />
          </mxGeometry>
        </mxCell>
        <mxCell id="OtcmYywF1ps1R1fDcR3n-160" value="7" style="shape=partialRectangle;html=1;whiteSpace=wrap;connectable=0;strokeColor=inherit;overflow=hidden;fillColor=none;top=0;left=0;bottom=0;right=0;pointerEvents=1;fontSize=16;" vertex="1" parent="OtcmYywF1ps1R1fDcR3n-157">
          <mxGeometry x="77" width="38" height="40" as="geometry">
            <mxRectangle width="38" height="40" as="alternateBounds" />
          </mxGeometry>
        </mxCell>
        <mxCell id="OtcmYywF1ps1R1fDcR3n-161" value="8" style="shape=partialRectangle;html=1;whiteSpace=wrap;connectable=0;strokeColor=inherit;overflow=hidden;fillColor=none;top=0;left=0;bottom=0;right=0;pointerEvents=1;fontSize=16;" vertex="1" parent="OtcmYywF1ps1R1fDcR3n-157">
          <mxGeometry x="115" width="39" height="40" as="geometry">
            <mxRectangle width="39" height="40" as="alternateBounds" />
          </mxGeometry>
        </mxCell>
        <mxCell id="OtcmYywF1ps1R1fDcR3n-162" value="" style="shape=table;startSize=0;container=1;collapsible=0;childLayout=tableLayout;fontSize=16;fontStyle=1" vertex="1" parent="1">
          <mxGeometry x="1617" y="1929" width="154" height="40" as="geometry" />
        </mxCell>
        <mxCell id="OtcmYywF1ps1R1fDcR3n-163" value="" style="shape=tableRow;horizontal=0;startSize=0;swimlaneHead=0;swimlaneBody=0;strokeColor=inherit;top=0;left=0;bottom=0;right=0;collapsible=0;dropTarget=0;fillColor=none;points=[[0,0.5],[1,0.5]];portConstraint=eastwest;fontSize=16;" vertex="1" parent="OtcmYywF1ps1R1fDcR3n-162">
          <mxGeometry width="154" height="40" as="geometry" />
        </mxCell>
        <mxCell id="OtcmYywF1ps1R1fDcR3n-164" value="2" style="shape=partialRectangle;html=1;whiteSpace=wrap;connectable=0;strokeColor=inherit;overflow=hidden;fillColor=none;top=0;left=0;bottom=0;right=0;pointerEvents=1;fontSize=16;" vertex="1" parent="OtcmYywF1ps1R1fDcR3n-163">
          <mxGeometry width="39" height="40" as="geometry">
            <mxRectangle width="39" height="40" as="alternateBounds" />
          </mxGeometry>
        </mxCell>
        <mxCell id="OtcmYywF1ps1R1fDcR3n-165" value="6&lt;span style=&quot;white-space: pre;&quot;&gt;&#x9;&lt;/span&gt;" style="shape=partialRectangle;html=1;whiteSpace=wrap;connectable=0;strokeColor=inherit;overflow=hidden;fillColor=none;top=0;left=0;bottom=0;right=0;pointerEvents=1;fontSize=16;" vertex="1" parent="OtcmYywF1ps1R1fDcR3n-163">
          <mxGeometry x="39" width="38" height="40" as="geometry">
            <mxRectangle width="38" height="40" as="alternateBounds" />
          </mxGeometry>
        </mxCell>
        <mxCell id="OtcmYywF1ps1R1fDcR3n-166" value="8" style="shape=partialRectangle;html=1;whiteSpace=wrap;connectable=0;strokeColor=inherit;overflow=hidden;fillColor=none;top=0;left=0;bottom=0;right=0;pointerEvents=1;fontSize=16;" vertex="1" parent="OtcmYywF1ps1R1fDcR3n-163">
          <mxGeometry x="77" width="38" height="40" as="geometry">
            <mxRectangle width="38" height="40" as="alternateBounds" />
          </mxGeometry>
        </mxCell>
        <mxCell id="OtcmYywF1ps1R1fDcR3n-167" value="9" style="shape=partialRectangle;html=1;whiteSpace=wrap;connectable=0;strokeColor=inherit;overflow=hidden;fillColor=none;top=0;left=0;bottom=0;right=0;pointerEvents=1;fontSize=16;" vertex="1" parent="OtcmYywF1ps1R1fDcR3n-163">
          <mxGeometry x="115" width="39" height="40" as="geometry">
            <mxRectangle width="39" height="40" as="alternateBounds" />
          </mxGeometry>
        </mxCell>
        <mxCell id="OtcmYywF1ps1R1fDcR3n-168" value="" style="endArrow=classic;html=1;rounded=0;exitX=0.542;exitY=1.029;exitDx=0;exitDy=0;exitPerimeter=0;" edge="1" parent="1" source="OtcmYywF1ps1R1fDcR3n-130" target="OtcmYywF1ps1R1fDcR3n-157">
          <mxGeometry width="50" height="50" relative="1" as="geometry">
            <mxPoint x="1614" y="1866" as="sourcePoint" />
            <mxPoint x="1664" y="1816" as="targetPoint" />
          </mxGeometry>
        </mxCell>
        <mxCell id="OtcmYywF1ps1R1fDcR3n-169" value="" style="endArrow=classic;html=1;rounded=0;exitX=0.507;exitY=1.116;exitDx=0;exitDy=0;exitPerimeter=0;entryX=0.649;entryY=-0.035;entryDx=0;entryDy=0;entryPerimeter=0;" edge="1" parent="1" source="OtcmYywF1ps1R1fDcR3n-136" target="OtcmYywF1ps1R1fDcR3n-157">
          <mxGeometry width="50" height="50" relative="1" as="geometry">
            <mxPoint x="1614" y="1866" as="sourcePoint" />
            <mxPoint x="1664" y="1816" as="targetPoint" />
          </mxGeometry>
        </mxCell>
        <mxCell id="OtcmYywF1ps1R1fDcR3n-170" value="" style="endArrow=classic;html=1;rounded=0;exitX=0.523;exitY=1.049;exitDx=0;exitDy=0;exitPerimeter=0;entryX=0.407;entryY=-0.1;entryDx=0;entryDy=0;entryPerimeter=0;" edge="1" parent="1" source="OtcmYywF1ps1R1fDcR3n-142" target="OtcmYywF1ps1R1fDcR3n-163">
          <mxGeometry width="50" height="50" relative="1" as="geometry">
            <mxPoint x="1614" y="1866" as="sourcePoint" />
            <mxPoint x="1664" y="1816" as="targetPoint" />
          </mxGeometry>
        </mxCell>
        <mxCell id="OtcmYywF1ps1R1fDcR3n-171" value="" style="endArrow=classic;html=1;rounded=0;exitX=0.496;exitY=0.962;exitDx=0;exitDy=0;exitPerimeter=0;" edge="1" parent="1" source="OtcmYywF1ps1R1fDcR3n-148">
          <mxGeometry width="50" height="50" relative="1" as="geometry">
            <mxPoint x="1831" y="1950" as="sourcePoint" />
            <mxPoint x="1709" y="1924" as="targetPoint" />
          </mxGeometry>
        </mxCell>
        <mxCell id="OtcmYywF1ps1R1fDcR3n-172" value="" style="shape=table;startSize=0;container=1;collapsible=0;childLayout=tableLayout;fontSize=16;" vertex="1" parent="1">
          <mxGeometry x="1417" y="2016" width="307" height="40" as="geometry" />
        </mxCell>
        <mxCell id="OtcmYywF1ps1R1fDcR3n-173" value="" style="shape=tableRow;horizontal=0;startSize=0;swimlaneHead=0;swimlaneBody=0;strokeColor=inherit;top=0;left=0;bottom=0;right=0;collapsible=0;dropTarget=0;fillColor=none;points=[[0,0.5],[1,0.5]];portConstraint=eastwest;fontSize=16;" vertex="1" parent="OtcmYywF1ps1R1fDcR3n-172">
          <mxGeometry width="307" height="40" as="geometry" />
        </mxCell>
        <mxCell id="OtcmYywF1ps1R1fDcR3n-174" value="2" style="shape=partialRectangle;html=1;whiteSpace=wrap;connectable=0;strokeColor=inherit;overflow=hidden;fillColor=none;top=0;left=0;bottom=0;right=0;pointerEvents=1;fontSize=16;" vertex="1" parent="OtcmYywF1ps1R1fDcR3n-173">
          <mxGeometry width="39" height="40" as="geometry">
            <mxRectangle width="39" height="40" as="alternateBounds" />
          </mxGeometry>
        </mxCell>
        <mxCell id="OtcmYywF1ps1R1fDcR3n-175" value="2" style="shape=partialRectangle;html=1;whiteSpace=wrap;connectable=0;strokeColor=inherit;overflow=hidden;fillColor=none;top=0;left=0;bottom=0;right=0;pointerEvents=1;fontSize=16;" vertex="1" parent="OtcmYywF1ps1R1fDcR3n-173">
          <mxGeometry x="39" width="38" height="40" as="geometry">
            <mxRectangle width="38" height="40" as="alternateBounds" />
          </mxGeometry>
        </mxCell>
        <mxCell id="OtcmYywF1ps1R1fDcR3n-176" value="5" style="shape=partialRectangle;html=1;whiteSpace=wrap;connectable=0;strokeColor=inherit;overflow=hidden;fillColor=none;top=0;left=0;bottom=0;right=0;pointerEvents=1;fontSize=16;" vertex="1" parent="OtcmYywF1ps1R1fDcR3n-173">
          <mxGeometry x="77" width="38" height="40" as="geometry">
            <mxRectangle width="38" height="40" as="alternateBounds" />
          </mxGeometry>
        </mxCell>
        <mxCell id="OtcmYywF1ps1R1fDcR3n-177" value="6" style="shape=partialRectangle;html=1;whiteSpace=wrap;connectable=0;strokeColor=inherit;overflow=hidden;fillColor=none;top=0;left=0;bottom=0;right=0;pointerEvents=1;fontSize=16;" vertex="1" parent="OtcmYywF1ps1R1fDcR3n-173">
          <mxGeometry x="115" width="39" height="40" as="geometry">
            <mxRectangle width="39" height="40" as="alternateBounds" />
          </mxGeometry>
        </mxCell>
        <mxCell id="OtcmYywF1ps1R1fDcR3n-178" value="7" style="shape=partialRectangle;html=1;whiteSpace=wrap;connectable=0;strokeColor=inherit;overflow=hidden;fillColor=none;top=0;left=0;bottom=0;right=0;pointerEvents=1;fontSize=16;" vertex="1" parent="OtcmYywF1ps1R1fDcR3n-173">
          <mxGeometry x="154" width="39" height="40" as="geometry">
            <mxRectangle width="39" height="40" as="alternateBounds" />
          </mxGeometry>
        </mxCell>
        <mxCell id="OtcmYywF1ps1R1fDcR3n-179" value="8" style="shape=partialRectangle;html=1;whiteSpace=wrap;connectable=0;strokeColor=inherit;overflow=hidden;fillColor=none;top=0;left=0;bottom=0;right=0;pointerEvents=1;fontSize=16;" vertex="1" parent="OtcmYywF1ps1R1fDcR3n-173">
          <mxGeometry x="193" width="37" height="40" as="geometry">
            <mxRectangle width="37" height="40" as="alternateBounds" />
          </mxGeometry>
        </mxCell>
        <mxCell id="OtcmYywF1ps1R1fDcR3n-180" value="8" style="shape=partialRectangle;html=1;whiteSpace=wrap;connectable=0;strokeColor=inherit;overflow=hidden;fillColor=none;top=0;left=0;bottom=0;right=0;pointerEvents=1;fontSize=16;" vertex="1" parent="OtcmYywF1ps1R1fDcR3n-173">
          <mxGeometry x="230" width="39" height="40" as="geometry">
            <mxRectangle width="39" height="40" as="alternateBounds" />
          </mxGeometry>
        </mxCell>
        <mxCell id="OtcmYywF1ps1R1fDcR3n-181" value="9" style="shape=partialRectangle;html=1;whiteSpace=wrap;connectable=0;strokeColor=inherit;overflow=hidden;fillColor=none;top=0;left=0;bottom=0;right=0;pointerEvents=1;fontSize=16;" vertex="1" parent="OtcmYywF1ps1R1fDcR3n-173">
          <mxGeometry x="269" width="38" height="40" as="geometry">
            <mxRectangle width="38" height="40" as="alternateBounds" />
          </mxGeometry>
        </mxCell>
        <mxCell id="OtcmYywF1ps1R1fDcR3n-182" value="" style="endArrow=classic;html=1;rounded=0;exitX=0.491;exitY=1.043;exitDx=0;exitDy=0;exitPerimeter=0;entryX=0.301;entryY=0.003;entryDx=0;entryDy=0;entryPerimeter=0;" edge="1" parent="1" source="OtcmYywF1ps1R1fDcR3n-157" target="OtcmYywF1ps1R1fDcR3n-173">
          <mxGeometry width="50" height="50" relative="1" as="geometry">
            <mxPoint x="1614" y="1866" as="sourcePoint" />
            <mxPoint x="1664" y="1816" as="targetPoint" />
          </mxGeometry>
        </mxCell>
        <mxCell id="OtcmYywF1ps1R1fDcR3n-183" value="" style="endArrow=classic;html=1;rounded=0;entryX=0.686;entryY=-0.066;entryDx=0;entryDy=0;entryPerimeter=0;" edge="1" parent="1" source="OtcmYywF1ps1R1fDcR3n-163" target="OtcmYywF1ps1R1fDcR3n-173">
          <mxGeometry width="50" height="50" relative="1" as="geometry">
            <mxPoint x="1614" y="1866" as="sourcePoint" />
            <mxPoint x="1664" y="1816" as="targetPoint" />
          </mxGeometry>
        </mxCell>
        <mxCell id="OtcmYywF1ps1R1fDcR3n-184" value="Arr1" style="text;html=1;strokeColor=none;fillColor=none;align=center;verticalAlign=middle;whiteSpace=wrap;rounded=0;" vertex="1" parent="1">
          <mxGeometry x="1720" y="1505" width="60" height="30" as="geometry" />
        </mxCell>
        <mxCell id="OtcmYywF1ps1R1fDcR3n-185" value="Arr2" style="text;html=1;strokeColor=none;fillColor=none;align=center;verticalAlign=middle;whiteSpace=wrap;rounded=0;" vertex="1" parent="1">
          <mxGeometry x="1362" y="1553" width="60" height="30" as="geometry" />
        </mxCell>
        <mxCell id="OtcmYywF1ps1R1fDcR3n-186" value="Arr3" style="text;html=1;strokeColor=none;fillColor=none;align=center;verticalAlign=middle;whiteSpace=wrap;rounded=0;" vertex="1" parent="1">
          <mxGeometry x="1679" y="1557" width="60" height="30" as="geometry" />
        </mxCell>
        <mxCell id="OtcmYywF1ps1R1fDcR3n-187" value="Arr4" style="text;html=1;strokeColor=none;fillColor=none;align=center;verticalAlign=middle;whiteSpace=wrap;rounded=0;" vertex="1" parent="1">
          <mxGeometry x="1342.5" y="1651" width="60" height="30" as="geometry" />
        </mxCell>
        <mxCell id="OtcmYywF1ps1R1fDcR3n-188" value="Arr5" style="text;html=1;strokeColor=none;fillColor=none;align=center;verticalAlign=middle;whiteSpace=wrap;rounded=0;" vertex="1" parent="1">
          <mxGeometry x="1453" y="1651" width="60" height="30" as="geometry" />
        </mxCell>
        <mxCell id="OtcmYywF1ps1R1fDcR3n-189" value="Arr6" style="text;html=1;strokeColor=none;fillColor=none;align=center;verticalAlign=middle;whiteSpace=wrap;rounded=0;" vertex="1" parent="1">
          <mxGeometry x="1561" y="1655" width="60" height="30" as="geometry" />
        </mxCell>
        <mxCell id="OtcmYywF1ps1R1fDcR3n-190" value="Arr7" style="text;html=1;strokeColor=none;fillColor=none;align=center;verticalAlign=middle;whiteSpace=wrap;rounded=0;" vertex="1" parent="1">
          <mxGeometry x="1717" y="1655" width="60" height="30" as="geometry" />
        </mxCell>
        <mxCell id="OtcmYywF1ps1R1fDcR3n-191" value="Arr8" style="text;html=1;strokeColor=none;fillColor=none;align=center;verticalAlign=middle;whiteSpace=wrap;rounded=0;" vertex="1" parent="1">
          <mxGeometry x="1282.5" y="1731" width="60" height="30" as="geometry" />
        </mxCell>
        <mxCell id="OtcmYywF1ps1R1fDcR3n-192" value="Arr9" style="text;html=1;strokeColor=none;fillColor=none;align=center;verticalAlign=middle;whiteSpace=wrap;rounded=0;" vertex="1" parent="1">
          <mxGeometry x="1358" y="1735" width="60" height="30" as="geometry" />
        </mxCell>
        <mxCell id="OtcmYywF1ps1R1fDcR3n-193" value="Arr10" style="text;html=1;strokeColor=none;fillColor=none;align=center;verticalAlign=middle;whiteSpace=wrap;rounded=0;" vertex="1" parent="1">
          <mxGeometry x="1422" y="1734" width="60" height="30" as="geometry" />
        </mxCell>
        <mxCell id="OtcmYywF1ps1R1fDcR3n-194" value="Arr11" style="text;html=1;strokeColor=none;fillColor=none;align=center;verticalAlign=middle;whiteSpace=wrap;rounded=0;" vertex="1" parent="1">
          <mxGeometry x="1476.5" y="1736" width="60" height="30" as="geometry" />
        </mxCell>
        <mxCell id="OtcmYywF1ps1R1fDcR3n-195" value="Arr12" style="text;html=1;strokeColor=none;fillColor=none;align=center;verticalAlign=middle;whiteSpace=wrap;rounded=0;" vertex="1" parent="1">
          <mxGeometry x="1547" y="1736" width="60" height="30" as="geometry" />
        </mxCell>
        <mxCell id="OtcmYywF1ps1R1fDcR3n-196" value="Arr13" style="text;html=1;strokeColor=none;fillColor=none;align=center;verticalAlign=middle;whiteSpace=wrap;rounded=0;" vertex="1" parent="1">
          <mxGeometry x="1607" y="1736" width="60" height="30" as="geometry" />
        </mxCell>
        <mxCell id="OtcmYywF1ps1R1fDcR3n-197" value="Arr14" style="text;html=1;strokeColor=none;fillColor=none;align=center;verticalAlign=middle;whiteSpace=wrap;rounded=0;" vertex="1" parent="1">
          <mxGeometry x="1698" y="1736" width="60" height="30" as="geometry" />
        </mxCell>
        <mxCell id="OtcmYywF1ps1R1fDcR3n-198" value="Arr15" style="text;html=1;strokeColor=none;fillColor=none;align=center;verticalAlign=middle;whiteSpace=wrap;rounded=0;" vertex="1" parent="1">
          <mxGeometry x="1788" y="1736" width="60" height="30" as="geometry" />
        </mxCell>
        <mxCell id="OtcmYywF1ps1R1fDcR3n-199" value="Arr4" style="text;html=1;strokeColor=none;fillColor=none;align=center;verticalAlign=middle;whiteSpace=wrap;rounded=0;" vertex="1" parent="1">
          <mxGeometry x="1282.5" y="1816" width="60" height="30" as="geometry" />
        </mxCell>
        <mxCell id="OtcmYywF1ps1R1fDcR3n-200" value="Arr5" style="text;html=1;strokeColor=none;fillColor=none;align=center;verticalAlign=middle;whiteSpace=wrap;rounded=0;" vertex="1" parent="1">
          <mxGeometry x="1423" y="1812" width="60" height="30" as="geometry" />
        </mxCell>
        <mxCell id="OtcmYywF1ps1R1fDcR3n-201" value="Arr6" style="text;html=1;strokeColor=none;fillColor=none;align=center;verticalAlign=middle;whiteSpace=wrap;rounded=0;" vertex="1" parent="1">
          <mxGeometry x="1550" y="1812" width="60" height="30" as="geometry" />
        </mxCell>
        <mxCell id="OtcmYywF1ps1R1fDcR3n-202" value="Arr7" style="text;html=1;strokeColor=none;fillColor=none;align=center;verticalAlign=middle;whiteSpace=wrap;rounded=0;" vertex="1" parent="1">
          <mxGeometry x="1674.25" y="1812" width="60" height="30" as="geometry" />
        </mxCell>
        <mxCell id="OtcmYywF1ps1R1fDcR3n-203" value="Arr2" style="text;html=1;strokeColor=none;fillColor=none;align=center;verticalAlign=middle;whiteSpace=wrap;rounded=0;" vertex="1" parent="1">
          <mxGeometry x="1334" y="1895" width="60" height="30" as="geometry" />
        </mxCell>
        <mxCell id="OtcmYywF1ps1R1fDcR3n-204" value="Arr3" style="text;html=1;strokeColor=none;fillColor=none;align=center;verticalAlign=middle;whiteSpace=wrap;rounded=0;" vertex="1" parent="1">
          <mxGeometry x="1733" y="1899" width="60" height="30" as="geometry" />
        </mxCell>
        <mxCell id="OtcmYywF1ps1R1fDcR3n-205" value="Arr1" style="text;html=1;strokeColor=none;fillColor=none;align=center;verticalAlign=middle;whiteSpace=wrap;rounded=0;" vertex="1" parent="1">
          <mxGeometry x="1731" y="2021" width="60" height="30" as="geometry" />
        </mxCell>
      </root>
    </mxGraphModel>
  </diagram>
</mxfile>
